<svg xmlns:xlink="http://www.w3.org/1999/xlink" version="1.1" class="highcharts-root" style="font-family:&quot;Lucida Grande&quot;, &quot;Lucida Sans Unicode&quot;, Arial, Helvetica, sans-serif;font-size:12px;" xmlns="http://www.w3.org/2000/svg" width="1000" height="500" viewBox="0 0 1000 500" viewbox="0 0 1000 400"><title id="highcharts-title-5">Chart</title><desc>Created with Highstock 6.1.1</desc><defs><clipPath id="highcharts-84h06mw-42"><rect x="0" y="0" width="910" height="362" fill="none"></rect></clipPath><clipPath id="highcharts-84h06mw-43"><rect x="0" y="0" width="910" height="362" fill="none"></rect></clipPath><pattern id="highcharts-default-pattern-0" patternUnits="userSpaceOnUse" width="10" height="10" x="0" y="0"><path d="M 0 0 L 10 10 M 9 -1 L 11 1 M -1 9 L 1 11" stroke="#7cb5ec" stroke-width="2"></path></pattern><pattern id="highcharts-default-pattern-1" patternUnits="userSpaceOnUse" width="10" height="10" x="0" y="0"><path d="M 0 10 L 10 0 M -1 1 L 1 -1 M 9 11 L 11 9" stroke="#434348" stroke-width="2"></path></pattern><pattern id="highcharts-default-pattern-2" patternUnits="userSpaceOnUse" width="10" height="10" x="0" y="0"><path d="M 3 0 L 3 10 M 8 0 L 8 10" stroke="#90ed7d" stroke-width="2"></path></pattern><pattern id="highcharts-default-pattern-3" patternUnits="userSpaceOnUse" width="10" height="10" x="0" y="0"><path d="M 0 3 L 10 3 M 0 8 L 10 8" stroke="#f7a35c" stroke-width="2"></path></pattern><pattern id="highcharts-default-pattern-4" patternUnits="userSpaceOnUse" width="10" height="10" x="0" y="0"><path d="M 0 3 L 5 3 L 5 0 M 5 10 L 5 7 L 10 7" stroke="#8085e9" stroke-width="2"></path></pattern><pattern id="highcharts-default-pattern-5" patternUnits="userSpaceOnUse" width="10" height="10" x="0" y="0"><path d="M 3 3 L 8 3 L 8 8 L 3 8 Z" stroke="#f15c80" stroke-width="2"></path></pattern><pattern id="highcharts-default-pattern-6" patternUnits="userSpaceOnUse" width="10" height="10" x="0" y="0"><path d="M 5 5 m -4 0 a 4 4 0 1 1 8 0 a 4 4 0 1 1 -8 0" stroke="#e4d354" stroke-width="2"></path></pattern><pattern id="highcharts-default-pattern-7" patternUnits="userSpaceOnUse" width="10" height="10" x="0" y="0"><path d="M 10 3 L 5 3 L 5 0 M 5 10 L 5 7 L 0 7" stroke="#2b908f" stroke-width="2"></path></pattern><pattern id="highcharts-default-pattern-8" patternUnits="userSpaceOnUse" width="10" height="10" x="0" y="0"><path d="M 2 5 L 5 2 L 8 5 L 5 8 Z" stroke="#f45b5b" stroke-width="2"></path></pattern><pattern id="highcharts-default-pattern-9" patternUnits="userSpaceOnUse" width="10" height="10" x="0" y="0"><path d="M 0 0 L 5 10 L 10 0" stroke="#91e8e1" stroke-width="2"></path></pattern></defs><rect fill="#ffffff" class="highcharts-background" x="0" y="0" width="1000" height="500" rx="0" ry="0"></rect><rect fill="none" class="highcharts-plot-background" x="10" y="10" width="910" height="362"></rect><g class="highcharts-grid highcharts-xaxis-grid " data-z-index="1"><path fill="none" stroke="#e6e6e6" stroke-width="1" data-z-index="1" class="highcharts-grid-line" d="M 9.5 10 L 9.5 372" opacity="1"></path><path fill="none" stroke="#e6e6e6" stroke-width="1" data-z-index="1" class="highcharts-grid-line" d="M 86.5 10 L 86.5 372" opacity="1"></path><path fill="none" stroke="#e6e6e6" stroke-width="1" data-z-index="1" class="highcharts-grid-line" d="M 156.5 10 L 156.5 372" opacity="1"></path><path fill="none" stroke="#e6e6e6" stroke-width="1" data-z-index="1" class="highcharts-grid-line" d="M 233.5 10 L 233.5 372" opacity="1"></path><path fill="none" stroke="#e6e6e6" stroke-width="1" data-z-index="1" class="highcharts-grid-line" d="M 308.5 10 L 308.5 372" opacity="1"></path><path fill="none" stroke="#e6e6e6" stroke-width="1" data-z-index="1" class="highcharts-grid-line" d="M 385.5 10 L 385.5 372" opacity="1"></path><path fill="none" stroke="#e6e6e6" stroke-width="1" data-z-index="1" class="highcharts-grid-line" d="M 460.5 10 L 460.5 372" opacity="1"></path><path fill="none" stroke="#e6e6e6" stroke-width="1" data-z-index="1" class="highcharts-grid-line" d="M 537.5 10 L 537.5 372" opacity="1"></path><path fill="none" stroke="#e6e6e6" stroke-width="1" data-z-index="1" class="highcharts-grid-line" d="M 615.5 10 L 615.5 372" opacity="1"></path><path fill="none" stroke="#e6e6e6" stroke-width="1" data-z-index="1" class="highcharts-grid-line" d="M 690.5 10 L 690.5 372" opacity="1"></path><path fill="none" stroke="#e6e6e6" stroke-width="1" data-z-index="1" class="highcharts-grid-line" d="M 767.5 10 L 767.5 372" opacity="1"></path><path fill="none" stroke="#e6e6e6" stroke-width="1" data-z-index="1" class="highcharts-grid-line" d="M 842.5 10 L 842.5 372" opacity="1"></path></g><g class="highcharts-grid highcharts-yaxis-grid " data-z-index="1"><path fill="none" stroke="#e6e6e6" stroke-width="1" data-z-index="1" class="highcharts-grid-line" d="M 10 372.5 L 920 372.5" opacity="1"></path><path fill="none" stroke="#e6e6e6" stroke-width="1" data-z-index="1" class="highcharts-grid-line" d="M 10 300.5 L 920 300.5" opacity="1"></path><path fill="none" stroke="#e6e6e6" stroke-width="1" data-z-index="1" class="highcharts-grid-line" d="M 10 227.5 L 920 227.5" opacity="1"></path><path fill="none" stroke="#e6e6e6" stroke-width="1" data-z-index="1" class="highcharts-grid-line" d="M 10 155.5 L 920 155.5" opacity="1"></path><path fill="none" stroke="#e6e6e6" stroke-width="1" data-z-index="1" class="highcharts-grid-line" d="M 10 82.5 L 920 82.5" opacity="1"></path><path fill="none" stroke="#e6e6e6" stroke-width="1" data-z-index="1" class="highcharts-grid-line" d="M 10 9.5 L 920 9.5" opacity="1"></path></g><rect fill="none" class="highcharts-plot-border" data-z-index="1" x="10" y="10" width="910" height="362"></rect><g class="highcharts-axis highcharts-xaxis " data-z-index="2"><path fill="none" class="highcharts-tick" stroke="#ccd6eb" stroke-width="1" d="M 9.5 372 L 9.5 382" opacity="1"></path><path fill="none" class="highcharts-tick" stroke="#ccd6eb" stroke-width="1" d="M 86.5 372 L 86.5 382" opacity="1"></path><path fill="none" class="highcharts-tick" stroke="#ccd6eb" stroke-width="1" d="M 156.5 372 L 156.5 382" opacity="1"></path><path fill="none" class="highcharts-tick" stroke="#ccd6eb" stroke-width="1" d="M 233.5 372 L 233.5 382" opacity="1"></path><path fill="none" class="highcharts-tick" stroke="#ccd6eb" stroke-width="1" d="M 308.5 372 L 308.5 382" opacity="1"></path><path fill="none" class="highcharts-tick" stroke="#ccd6eb" stroke-width="1" d="M 385.5 372 L 385.5 382" opacity="1"></path><path fill="none" class="highcharts-tick" stroke="#ccd6eb" stroke-width="1" d="M 460.5 372 L 460.5 382" opacity="1"></path><path fill="none" class="highcharts-tick" stroke="#ccd6eb" stroke-width="1" d="M 537.5 372 L 537.5 382" opacity="1"></path><path fill="none" class="highcharts-tick" stroke="#ccd6eb" stroke-width="1" d="M 615.5 372 L 615.5 382" opacity="1"></path><path fill="none" class="highcharts-tick" stroke="#ccd6eb" stroke-width="1" d="M 690.5 372 L 690.5 382" opacity="1"></path><path fill="none" class="highcharts-tick" stroke="#ccd6eb" stroke-width="1" d="M 767.5 372 L 767.5 382" opacity="1"></path><path fill="none" class="highcharts-tick" stroke="#ccd6eb" stroke-width="1" d="M 842.5 372 L 842.5 382" opacity="1"></path><path fill="none" class="highcharts-axis-line" stroke="#ccd6eb" stroke-width="1" data-z-index="7" d="M 10 372.5 L 920 372.5"></path></g><g class="highcharts-axis highcharts-yaxis " data-z-index="2"><text x="975.578125" data-z-index="7" text-anchor="middle" transform="translate(0,0) rotate(90 975.578125 191)" class="highcharts-axis-title" style="color:#666666;fill:#666666;" y="191" aria-hidden="true"><tspan>MWh</tspan></text><path fill="none" class="highcharts-axis-line" data-z-index="7" d="M 920 10 L 920 372"></path></g><g class="highcharts-series-group" data-z-index="3"><g data-z-index="0.1" class="highcharts-series highcharts-series-0 highcharts-area-series " transform="translate(10,10) scale(1 1)" clip-path="url(#highcharts-84h06mw-43)"><path fill="rgb(117,128,117)" d="M 9.9726027400423 362 L 9.9726027400423 41.02975332 L 27.424657535116 46.41267884000001 L 44.87671233019 47.706698519999975 L 62.328767125264 34.11316412000002 L 79.780821920338 34.03483455999998 L 97.232876715412 38.674132439999994 L 114.68493151049 36.57851443999999 L 132.13698630556 32.10879907999998 L 149.58904110063 28.150365280000017 L 167.04109589571 48.47917031999998 L 184.49315069078 49.02761479999998 L 201.94520548586 58.65320928 L 219.29337900239 65.61047279999997 L 236.74543379746 74.92052636 L 254.19748859254 67.39915100000002 L 271.64954338761 76.94325928 L 289.10159818268 94.34934148000002 L 306.55365297776 83.37064168 L 324.00570777283 104.15715227999999 L 341.45776256791 101.69896956000002 L 358.90981736298 94.96976603999997 L 376.36187215805 88.50324419999998 L 393.81392695313 88.38807028000002 L 411.2659817482 92.19462335999998 L 428.71803654327 82.00387447999998 L 446.17009133835 69.58033855999997 L 463.62214613342 77.897513 L 481.0742009285 82.37869652 L 498.52625572357 73.85980119999999 L 515.97831051864 91.17245844000001 L 533.43036531372 90.43159648 L 550.88242010879 82.79960116000001 L 568.33447490387 83.38853896 L 585.78652969894 64.00912235999999 L 603.23858449401 55.157527319999986 L 620.69063928909 63.921185320000006 L 638.14269408416 38.63148159999997 L 655.59474887924 62.61828215999998 L 673.04680367431 54.18012732 L 690.49885846938 63.73825948000001 L 707.95091326446 61.71029204000001 L 725.40296805953 53.96882791999997 L 742.95890413315 59.78667472000001 L 760.41095892822 56.66871803999999 L 777.8630137233 35.56256867999997 L 795.31506851837 32.33433231999999 L 812.76712331344 27.975678560000006 L 830.21917810852 26.026424399999996 L 847.67123290359 32.64615911999999 L 865.12328769867 44.588430519999974 L 882.57534249374 72.62788624000001 L 900.02739728881 95.12087207999997 L 917.47945208389 45.41378328000002 L 917.47945208389 71.01541515999998 L 900.02739728881 112.36692131999999 L 882.57534249374 90.70900432000002 L 865.12328769867 70.85019835999998 L 847.67123290359 57.25570104000002 L 830.21917810852 50.73807204000002 L 812.76712331344 57.69339523999997 L 795.31506851837 56.34664664000002 L 777.8630137233 59.93773732 L 760.41095892822 84.91040867999999 L 742.95890413315 86.76880083999998 L 725.40296805953 89.52473579999997 L 707.95091326446 91.81799131999998 L 690.49885846938 86.5648066 L 673.04680367431 81.64363379999998 L 655.59474887924 84.03116136 L 638.14269408416 79.66631015999997 L 620.69063928909 85.60290743999997 L 603.23858449401 80.08305180000002 L 585.78652969894 85.63272899999998 L 568.33447490387 106.22312248 L 550.88242010879 104.00612588000001 L 533.43036531372 111.78709143999998 L 515.97831051864 110.01070676 L 498.52625572357 104.15427075999997 L 481.0742009285 115.24187463999999 L 463.62214613342 104.67515256000002 L 446.17009133835 101.61171308000002 L 428.71803654327 113.14927571999999 L 411.2659817482 120.82467484 L 393.81392695313 120.58458919999998 L 376.36187215805 112.73152048 L 358.90981736298 121.39081388 L 341.45776256791 131.05206536 L 324.00570777283 127.69584028 L 306.55365297776 107.08294487999999 L 289.10159818268 122.47912344 L 271.64954338761 108.78292583999999 L 254.19748859254 96.72114376000002 L 236.74543379746 107.60646204 L 219.29337900239 92.40016695999998 L 201.94520548586 92.23851947999998 L 184.49315069078 86.40273195999998 L 167.04109589571 88.71832288000002 L 149.58904110063 62.76235092000002 L 132.13698630556 72.34015416 L 114.68493151049 77.85426123999997 L 97.232876715412 82.0086746 L 79.780821920338 77.62175587999997 L 62.328767125264 76.33393364 L 44.87671233019 93.00307795999998 L 27.424657535116 67.62387336 L 9.9726027400423 77.84034595999998 L 9.9726027400423 362" class="highcharts-area" data-z-index="0"></path><path fill="none" d="M 9.9726027400423 41.02975332 L 27.424657535116 46.41267884000001 L 44.87671233019 47.706698519999975 L 62.328767125264 34.11316412000002 L 79.780821920338 34.03483455999998 L 97.232876715412 38.674132439999994 L 114.68493151049 36.57851443999999 L 132.13698630556 32.10879907999998 L 149.58904110063 28.150365280000017 L 167.04109589571 48.47917031999998 L 184.49315069078 49.02761479999998 L 201.94520548586 58.65320928 L 219.29337900239 65.61047279999997 L 236.74543379746 74.92052636 L 254.19748859254 67.39915100000002 L 271.64954338761 76.94325928 L 289.10159818268 94.34934148000002 L 306.55365297776 83.37064168 L 324.00570777283 104.15715227999999 L 341.45776256791 101.69896956000002 L 358.90981736298 94.96976603999997 L 376.36187215805 88.50324419999998 L 393.81392695313 88.38807028000002 L 411.2659817482 92.19462335999998 L 428.71803654327 82.00387447999998 L 446.17009133835 69.58033855999997 L 463.62214613342 77.897513 L 481.0742009285 82.37869652 L 498.52625572357 73.85980119999999 L 515.97831051864 91.17245844000001 L 533.43036531372 90.43159648 L 550.88242010879 82.79960116000001 L 568.33447490387 83.38853896 L 585.78652969894 64.00912235999999 L 603.23858449401 55.157527319999986 L 620.69063928909 63.921185320000006 L 638.14269408416 38.63148159999997 L 655.59474887924 62.61828215999998 L 673.04680367431 54.18012732 L 690.49885846938 63.73825948000001 L 707.95091326446 61.71029204000001 L 725.40296805953 53.96882791999997 L 742.95890413315 59.78667472000001 L 760.41095892822 56.66871803999999 L 777.8630137233 35.56256867999997 L 795.31506851837 32.33433231999999 L 812.76712331344 27.975678560000006 L 830.21917810852 26.026424399999996 L 847.67123290359 32.64615911999999 L 865.12328769867 44.588430519999974 L 882.57534249374 72.62788624000001 L 900.02739728881 95.12087207999997 L 917.47945208389 45.41378328000002" class="highcharts-graph" data-z-index="1" stroke-dasharray="none" role="region" tabindex="-1" aria-label="DatenserieMM-Name.Realisierte Erzeugung - MM-Bausteine.Sonstige Konventionelle"></path></g><g data-z-index="0.1" class="highcharts-markers highcharts-series-0 highcharts-area-series " transform="translate(10,10) scale(1 1)" clip-path="none"></g><g data-z-index="0.1" class="highcharts-series highcharts-series-1 highcharts-area-series " transform="translate(10,10) scale(1 1)" clip-path="url(#highcharts-84h06mw-43)"><path fill="rgb(67,84,116)" d="M 9.9726027400423 362 L 9.9726027400423 77.84034595999998 L 27.424657535116 67.62387336 L 44.87671233019 93.00307795999998 L 62.328767125264 76.33393364 L 79.780821920338 77.62175587999997 L 97.232876715412 82.0086746 L 114.68493151049 77.85426123999997 L 132.13698630556 72.34015416 L 149.58904110063 62.76235092000002 L 167.04109589571 88.71832288000002 L 184.49315069078 86.40273195999998 L 201.94520548586 92.23851947999998 L 219.29337900239 92.40016695999998 L 236.74543379746 107.60646204 L 254.19748859254 96.72114376000002 L 271.64954338761 108.78292583999999 L 289.10159818268 122.47912344 L 306.55365297776 107.08294487999999 L 324.00570777283 127.69584028 L 341.45776256791 131.05206536 L 358.90981736298 121.39081388 L 376.36187215805 112.73152048 L 393.81392695313 120.58458919999998 L 411.2659817482 120.82467484 L 428.71803654327 113.14927571999999 L 446.17009133835 101.61171308000002 L 463.62214613342 104.67515256000002 L 481.0742009285 115.24187463999999 L 498.52625572357 104.15427075999997 L 515.97831051864 110.01070676 L 533.43036531372 111.78709143999998 L 550.88242010879 104.00612588000001 L 568.33447490387 106.22312248 L 585.78652969894 85.63272899999998 L 603.23858449401 80.08305180000002 L 620.69063928909 85.60290743999997 L 638.14269408416 79.66631015999997 L 655.59474887924 84.03116136 L 673.04680367431 81.64363379999998 L 690.49885846938 86.5648066 L 707.95091326446 91.81799131999998 L 725.40296805953 89.52473579999997 L 742.95890413315 86.76880083999998 L 760.41095892822 84.91040867999999 L 777.8630137233 59.93773732 L 795.31506851837 56.34664664000002 L 812.76712331344 57.69339523999997 L 830.21917810852 50.73807204000002 L 847.67123290359 57.25570104000002 L 865.12328769867 70.85019835999998 L 882.57534249374 90.70900432000002 L 900.02739728881 112.36692131999999 L 917.47945208389 71.01541515999998 L 917.47945208389 75.80500095999997 L 900.02739728881 117.05221491999998 L 882.57534249374 95.81345771999997 L 865.12328769867 76.33404947999998 L 847.67123290359 62.33131751999997 L 830.21917810852 55.86795231999997 L 812.76712331344 63.40303299999999 L 795.31506851837 61.98195856000001 L 777.8630137233 65.22522515999998 L 760.41095892822 89.85424267999997 L 742.95890413315 92.08533555999998 L 725.40296805953 95.08357159999997 L 707.95091326446 97.60451064 L 690.49885846938 91.73093755999997 L 673.04680367431 87.46619384000002 L 655.59474887924 89.11844148 L 638.14269408416 84.21316048 L 620.69063928909 90.16100871999998 L 603.23858449401 85.68082432 L 585.78652969894 91.12373323999998 L 568.33447490387 110.98237268 L 550.88242010879 108.9368772 L 533.43036531372 117.17617819999998 L 515.97831051864 114.68412676 L 498.52625572357 109.24233279999999 L 481.0742009285 121.12499728 L 463.62214613342 110.03519244 L 446.17009133835 108.80824411999998 L 428.71803654327 118.69591936 L 411.2659817482 126.49659943999998 L 393.81392695313 126.36881344 L 376.36187215805 119.12417983999998 L 358.90981736298 127.56517276 L 341.45776256791 136.898626 L 324.00570777283 133.47040636 L 306.55365297776 112.975313 L 289.10159818268 128.13719068 L 271.64954338761 114.4157472 L 254.19748859254 102.60179756000002 L 236.74543379746 112.61693299999999 L 219.29337900239 97.87165216 L 201.94520548586 98.44355423999997 L 184.49315069078 92.80807579999998 L 167.04109589571 94.11367947999997 L 149.58904110063 68.61682487999997 L 132.13698630556 78.07497988 L 114.68493151049 83.33286335999998 L 97.232876715412 87.38050843999997 L 79.780821920338 83.11247775999999 L 62.328767125264 81.93665107999999 L 44.87671233019 99.14206944 L 27.424657535116 73.16104708 L 9.9726027400423 83.17796355999997 L 9.9726027400423 362" class="highcharts-area" data-z-index="0"></path><path fill="none" d="M 9.9726027400423 77.84034595999998 L 27.424657535116 67.62387336 L 44.87671233019 93.00307795999998 L 62.328767125264 76.33393364 L 79.780821920338 77.62175587999997 L 97.232876715412 82.0086746 L 114.68493151049 77.85426123999997 L 132.13698630556 72.34015416 L 149.58904110063 62.76235092000002 L 167.04109589571 88.71832288000002 L 184.49315069078 86.40273195999998 L 201.94520548586 92.23851947999998 L 219.29337900239 92.40016695999998 L 236.74543379746 107.60646204 L 254.19748859254 96.72114376000002 L 271.64954338761 108.78292583999999 L 289.10159818268 122.47912344 L 306.55365297776 107.08294487999999 L 324.00570777283 127.69584028 L 341.45776256791 131.05206536 L 358.90981736298 121.39081388 L 376.36187215805 112.73152048 L 393.81392695313 120.58458919999998 L 411.2659817482 120.82467484 L 428.71803654327 113.14927571999999 L 446.17009133835 101.61171308000002 L 463.62214613342 104.67515256000002 L 481.0742009285 115.24187463999999 L 498.52625572357 104.15427075999997 L 515.97831051864 110.01070676 L 533.43036531372 111.78709143999998 L 550.88242010879 104.00612588000001 L 568.33447490387 106.22312248 L 585.78652969894 85.63272899999998 L 603.23858449401 80.08305180000002 L 620.69063928909 85.60290743999997 L 638.14269408416 79.66631015999997 L 655.59474887924 84.03116136 L 673.04680367431 81.64363379999998 L 690.49885846938 86.5648066 L 707.95091326446 91.81799131999998 L 725.40296805953 89.52473579999997 L 742.95890413315 86.76880083999998 L 760.41095892822 84.91040867999999 L 777.8630137233 59.93773732 L 795.31506851837 56.34664664000002 L 812.76712331344 57.69339523999997 L 830.21917810852 50.73807204000002 L 847.67123290359 57.25570104000002 L 865.12328769867 70.85019835999998 L 882.57534249374 90.70900432000002 L 900.02739728881 112.36692131999999 L 917.47945208389 71.01541515999998" class="highcharts-graph" data-z-index="1" stroke-dasharray="none" role="region" tabindex="-1" aria-label="DatenserieMM-Name.Realisierte Erzeugung - MM-Bausteine.Pumpspeicher"></path></g><g data-z-index="0.1" class="highcharts-markers highcharts-series-1 highcharts-area-series " transform="translate(10,10) scale(1 1)" clip-path="none"></g><g data-z-index="0.1" class="highcharts-series highcharts-series-2 highcharts-area-series " transform="translate(10,10) scale(1 1)" clip-path="url(#highcharts-84h06mw-43)"><path fill="rgb(199,218,218)" d="M 9.9726027400423 362 L 9.9726027400423 83.17796355999997 L 27.424657535116 73.16104708 L 44.87671233019 99.14206944 L 62.328767125264 81.93665107999999 L 79.780821920338 83.11247775999999 L 97.232876715412 87.38050843999997 L 114.68493151049 83.33286335999998 L 132.13698630556 78.07497988 L 149.58904110063 68.61682487999997 L 167.04109589571 94.11367947999997 L 184.49315069078 92.80807579999998 L 201.94520548586 98.44355423999997 L 219.29337900239 97.87165216 L 236.74543379746 112.61693299999999 L 254.19748859254 102.60179756000002 L 271.64954338761 114.4157472 L 289.10159818268 128.13719068 L 306.55365297776 112.975313 L 324.00570777283 133.47040636 L 341.45776256791 136.898626 L 358.90981736298 127.56517276 L 376.36187215805 119.12417983999998 L 393.81392695313 126.36881344 L 411.2659817482 126.49659943999998 L 428.71803654327 118.69591936 L 446.17009133835 108.80824411999998 L 463.62214613342 110.03519244 L 481.0742009285 121.12499728 L 498.52625572357 109.24233279999999 L 515.97831051864 114.68412676 L 533.43036531372 117.17617819999998 L 550.88242010879 108.9368772 L 568.33447490387 110.98237268 L 585.78652969894 91.12373323999998 L 603.23858449401 85.68082432 L 620.69063928909 90.16100871999998 L 638.14269408416 84.21316048 L 655.59474887924 89.11844148 L 673.04680367431 87.46619384000002 L 690.49885846938 91.73093755999997 L 707.95091326446 97.60451064 L 725.40296805953 95.08357159999997 L 742.95890413315 92.08533555999998 L 760.41095892822 89.85424267999997 L 777.8630137233 65.22522515999998 L 795.31506851837 61.98195856000001 L 812.76712331344 63.40303299999999 L 830.21917810852 55.86795231999997 L 847.67123290359 62.33131751999997 L 865.12328769867 76.33404947999998 L 882.57534249374 95.81345771999997 L 900.02739728881 117.05221491999998 L 917.47945208389 75.80500095999997 L 917.47945208389 89.51467944000001 L 900.02739728881 126.58668675999999 L 882.57534249374 103.27175096000002 L 865.12328769867 91.97976912000001 L 847.67123290359 75.67182115999998 L 830.21917810852 68.35129064 L 812.76712331344 80.76748520000001 L 795.31506851837 74.0048908 L 777.8630137233 75.32254907999999 L 760.41095892822 102.50087919999999 L 742.95890413315 105.3802996 L 725.40296805953 106.72370332 L 707.95091326446 112.00825172 L 690.49885846938 101.57669320000002 L 673.04680367431 93.25324167999997 L 655.59474887924 96.29468603999999 L 638.14269408416 89.94855092 L 620.69063928909 95.11556516000002 L 603.23858449401 91.32509212000002 L 585.78652969894 96.61205144000002 L 568.33447490387 115.84111496 L 550.88242010879 114.77495256 L 533.43036531372 122.63237975999999 L 515.97831051864 121.70299544 L 498.52625572357 119.61657947999998 L 481.0742009285 127.52869039999999 L 463.62214613342 116.33337703999999 L 446.17009133835 115.32303504000001 L 428.71803654327 123.5571884 L 411.2659817482 131.54934476 L 393.81392695313 131.99552424 L 376.36187215805 124.77613652 L 358.90981736298 133.48936068 L 341.45776256791 142.98832756 L 324.00570777283 139.26984184 L 306.55365297776 118.09240019999999 L 289.10159818268 133.27890836 L 271.64954338761 118.808943 L 254.19748859254 108.19388667999999 L 236.74543379746 118.94041415999999 L 219.29337900239 105.43522223999997 L 201.94520548586 108.27703084000001 L 184.49315069078 101.95484563999997 L 167.04109589571 102.97172536 L 149.58904110063 76.82765095999997 L 132.13698630556 87.25333783999997 L 114.68493151049 93.83009592000002 L 97.232876715412 99.74977331999997 L 79.780821920338 97.79193251999999 L 62.328767125264 91.90671027999997 L 44.87671233019 113.56715403999999 L 27.424657535116 80.28204319999998 L 9.9726027400423 90.48159592000002 L 9.9726027400423 362" class="highcharts-area" data-z-index="0"></path><path fill="none" d="M 9.9726027400423 83.17796355999997 L 27.424657535116 73.16104708 L 44.87671233019 99.14206944 L 62.328767125264 81.93665107999999 L 79.780821920338 83.11247775999999 L 97.232876715412 87.38050843999997 L 114.68493151049 83.33286335999998 L 132.13698630556 78.07497988 L 149.58904110063 68.61682487999997 L 167.04109589571 94.11367947999997 L 184.49315069078 92.80807579999998 L 201.94520548586 98.44355423999997 L 219.29337900239 97.87165216 L 236.74543379746 112.61693299999999 L 254.19748859254 102.60179756000002 L 271.64954338761 114.4157472 L 289.10159818268 128.13719068 L 306.55365297776 112.975313 L 324.00570777283 133.47040636 L 341.45776256791 136.898626 L 358.90981736298 127.56517276 L 376.36187215805 119.12417983999998 L 393.81392695313 126.36881344 L 411.2659817482 126.49659943999998 L 428.71803654327 118.69591936 L 446.17009133835 108.80824411999998 L 463.62214613342 110.03519244 L 481.0742009285 121.12499728 L 498.52625572357 109.24233279999999 L 515.97831051864 114.68412676 L 533.43036531372 117.17617819999998 L 550.88242010879 108.9368772 L 568.33447490387 110.98237268 L 585.78652969894 91.12373323999998 L 603.23858449401 85.68082432 L 620.69063928909 90.16100871999998 L 638.14269408416 84.21316048 L 655.59474887924 89.11844148 L 673.04680367431 87.46619384000002 L 690.49885846938 91.73093755999997 L 707.95091326446 97.60451064 L 725.40296805953 95.08357159999997 L 742.95890413315 92.08533555999998 L 760.41095892822 89.85424267999997 L 777.8630137233 65.22522515999998 L 795.31506851837 61.98195856000001 L 812.76712331344 63.40303299999999 L 830.21917810852 55.86795231999997 L 847.67123290359 62.33131751999997 L 865.12328769867 76.33404947999998 L 882.57534249374 95.81345771999997 L 900.02739728881 117.05221491999998 L 917.47945208389 75.80500095999997" class="highcharts-graph" data-z-index="1" stroke-dasharray="none" role="region" tabindex="-1" aria-label="DatenserieMM-Name.Realisierte Erzeugung - MM-Bausteine.Erdgas"></path></g><g data-z-index="0.1" class="highcharts-markers highcharts-series-2 highcharts-area-series " transform="translate(10,10) scale(1 1)" clip-path="none"></g><g data-z-index="0.1" class="highcharts-series highcharts-series-3 highcharts-area-series " transform="translate(10,10) scale(1 1)" clip-path="url(#highcharts-84h06mw-43)"><path fill="rgb(65,65,65)" d="M 9.9726027400423 362 L 9.9726027400423 90.48159592000002 L 27.424657535116 80.28204319999998 L 44.87671233019 113.56715403999999 L 62.328767125264 91.90671027999997 L 79.780821920338 97.79193251999999 L 97.232876715412 99.74977331999997 L 114.68493151049 93.83009592000002 L 132.13698630556 87.25333783999997 L 149.58904110063 76.82765095999997 L 167.04109589571 102.97172536 L 184.49315069078 101.95484563999997 L 201.94520548586 108.27703084000001 L 219.29337900239 105.43522223999997 L 236.74543379746 118.94041415999999 L 254.19748859254 108.19388667999999 L 271.64954338761 118.808943 L 289.10159818268 133.27890836 L 306.55365297776 118.09240019999999 L 324.00570777283 139.26984184 L 341.45776256791 142.98832756 L 358.90981736298 133.48936068 L 376.36187215805 124.77613652 L 393.81392695313 131.99552424 L 411.2659817482 131.54934476 L 428.71803654327 123.5571884 L 446.17009133835 115.32303504000001 L 463.62214613342 116.33337703999999 L 481.0742009285 127.52869039999999 L 498.52625572357 119.61657947999998 L 515.97831051864 121.70299544 L 533.43036531372 122.63237975999999 L 550.88242010879 114.77495256 L 568.33447490387 115.84111496 L 585.78652969894 96.61205144000002 L 603.23858449401 91.32509212000002 L 620.69063928909 95.11556516000002 L 638.14269408416 89.94855092 L 655.59474887924 96.29468603999999 L 673.04680367431 93.25324167999997 L 690.49885846938 101.57669320000002 L 707.95091326446 112.00825172 L 725.40296805953 106.72370332 L 742.95890413315 105.3802996 L 760.41095892822 102.50087919999999 L 777.8630137233 75.32254907999999 L 795.31506851837 74.0048908 L 812.76712331344 80.76748520000001 L 830.21917810852 68.35129064 L 847.67123290359 75.67182115999998 L 865.12328769867 91.97976912000001 L 882.57534249374 103.27175096000002 L 900.02739728881 126.58668675999999 L 917.47945208389 89.51467944000001 L 917.47945208389 143.38666512 L 900.02739728881 151.80131168 L 882.57534249374 115.51782724 L 865.12328769867 144.98844996 L 847.67123290359 132.37148296 L 830.21917810852 115.19493771999998 L 812.76712331344 138.23454356 L 795.31506851837 114.15161028 L 777.8630137233 115.44810604 L 760.41095892822 160.6197258 L 742.95890413315 163.8189732 L 725.40296805953 171.54648584 L 707.95091326446 182.95409772 L 690.49885846938 160.73126524 L 673.04680367431 155.99331512 L 655.59474887924 157.33270788 L 638.14269408416 131.436046 L 620.69063928909 148.04787848 L 603.23858449401 140.68269888 L 585.78652969894 138.54260556 L 568.33447490387 157.0143506 L 550.88242010879 164.05109484 L 533.43036531372 162.8837824 L 515.97831051864 143.3942816 L 498.52625572357 160.35731924 L 481.0742009285 177.57196136 L 463.62214613342 154.6740206 L 446.17009133835 166.1623802 L 428.71803654327 169.45454576 L 411.2659817482 172.25282748 L 393.81392695313 172.64121728 L 376.36187215805 146.81416076 L 358.90981736298 166.78977688 L 341.45776256791 179.83962348 L 324.00570777283 158.98845968 L 306.55365297776 145.48397728 L 289.10159818268 173.62701568 L 271.64954338761 163.01588344 L 254.19748859254 147.84288512 L 236.74543379746 159.27195636 L 219.29337900239 127.83028708 L 201.94520548586 161.37336636 L 184.49315069078 152.9231352 L 167.04109589571 159.84752188 L 149.58904110063 119.88593644 L 132.13698630556 136.58666164 L 114.68493151049 152.26237659999998 L 97.232876715412 160.07419904 L 79.780821920338 153.98003764 L 62.328767125264 146.0833986 L 44.87671233019 171.29708232 L 27.424657535116 119.34478264 L 9.9726027400423 123.09135956 L 9.9726027400423 362" class="highcharts-area" data-z-index="0"></path><path fill="none" d="M 9.9726027400423 90.48159592000002 L 27.424657535116 80.28204319999998 L 44.87671233019 113.56715403999999 L 62.328767125264 91.90671027999997 L 79.780821920338 97.79193251999999 L 97.232876715412 99.74977331999997 L 114.68493151049 93.83009592000002 L 132.13698630556 87.25333783999997 L 149.58904110063 76.82765095999997 L 167.04109589571 102.97172536 L 184.49315069078 101.95484563999997 L 201.94520548586 108.27703084000001 L 219.29337900239 105.43522223999997 L 236.74543379746 118.94041415999999 L 254.19748859254 108.19388667999999 L 271.64954338761 118.808943 L 289.10159818268 133.27890836 L 306.55365297776 118.09240019999999 L 324.00570777283 139.26984184 L 341.45776256791 142.98832756 L 358.90981736298 133.48936068 L 376.36187215805 124.77613652 L 393.81392695313 131.99552424 L 411.2659817482 131.54934476 L 428.71803654327 123.5571884 L 446.17009133835 115.32303504000001 L 463.62214613342 116.33337703999999 L 481.0742009285 127.52869039999999 L 498.52625572357 119.61657947999998 L 515.97831051864 121.70299544 L 533.43036531372 122.63237975999999 L 550.88242010879 114.77495256 L 568.33447490387 115.84111496 L 585.78652969894 96.61205144000002 L 603.23858449401 91.32509212000002 L 620.69063928909 95.11556516000002 L 638.14269408416 89.94855092 L 655.59474887924 96.29468603999999 L 673.04680367431 93.25324167999997 L 690.49885846938 101.57669320000002 L 707.95091326446 112.00825172 L 725.40296805953 106.72370332 L 742.95890413315 105.3802996 L 760.41095892822 102.50087919999999 L 777.8630137233 75.32254907999999 L 795.31506851837 74.0048908 L 812.76712331344 80.76748520000001 L 830.21917810852 68.35129064 L 847.67123290359 75.67182115999998 L 865.12328769867 91.97976912000001 L 882.57534249374 103.27175096000002 L 900.02739728881 126.58668675999999 L 917.47945208389 89.51467944000001" class="highcharts-graph" data-z-index="1" stroke-dasharray="none" role="region" tabindex="-1" aria-label="DatenserieMM-Name.Realisierte Erzeugung - MM-Bausteine.Steinkohle"></path></g><g data-z-index="0.1" class="highcharts-markers highcharts-series-3 highcharts-area-series " transform="translate(10,10) scale(1 1)" clip-path="none"></g><g data-z-index="0.1" class="highcharts-series highcharts-series-4 highcharts-area-series " transform="translate(10,10) scale(1 1)" clip-path="url(#highcharts-84h06mw-43)"><path fill="rgb(154,123,92)" d="M 9.9726027400423 362 L 9.9726027400423 123.09135956 L 27.424657535116 119.34478264 L 44.87671233019 171.29708232 L 62.328767125264 146.0833986 L 79.780821920338 153.98003764 L 97.232876715412 160.07419904 L 114.68493151049 152.26237659999998 L 132.13698630556 136.58666164 L 149.58904110063 119.88593644 L 167.04109589571 159.84752188 L 184.49315069078 152.9231352 L 201.94520548586 161.37336636 L 219.29337900239 127.83028708 L 236.74543379746 159.27195636 L 254.19748859254 147.84288512 L 271.64954338761 163.01588344 L 289.10159818268 173.62701568 L 306.55365297776 145.48397728 L 324.00570777283 158.98845968 L 341.45776256791 179.83962348 L 358.90981736298 166.78977688 L 376.36187215805 146.81416076 L 393.81392695313 172.64121728 L 411.2659817482 172.25282748 L 428.71803654327 169.45454576 L 446.17009133835 166.1623802 L 463.62214613342 154.6740206 L 481.0742009285 177.57196136 L 498.52625572357 160.35731924 L 515.97831051864 143.3942816 L 533.43036531372 162.8837824 L 550.88242010879 164.05109484 L 568.33447490387 157.0143506 L 585.78652969894 138.54260556 L 603.23858449401 140.68269888 L 620.69063928909 148.04787848 L 638.14269408416 131.436046 L 655.59474887924 157.33270788 L 673.04680367431 155.99331512 L 690.49885846938 160.73126524 L 707.95091326446 182.95409772 L 725.40296805953 171.54648584 L 742.95890413315 163.8189732 L 760.41095892822 160.6197258 L 777.8630137233 115.44810604 L 795.31506851837 114.15161028 L 812.76712331344 138.23454356 L 830.21917810852 115.19493771999998 L 847.67123290359 132.37148296 L 865.12328769867 144.98844996 L 882.57534249374 115.51782724 L 900.02739728881 151.80131168 L 917.47945208389 143.38666512 L 917.47945208389 218.5867858 L 900.02739728881 218.11103816 L 882.57534249374 172.33725311999999 L 865.12328769867 225.809627 L 847.67123290359 210.72445712 L 830.21917810852 181.77762668 L 812.76712331344 215.18786644 L 795.31506851837 191.14884376 L 777.8630137233 181.38175071999999 L 760.41095892822 240.82507568 L 742.95890413315 247.17860284 L 725.40296805953 255.53961548 L 707.95091326446 264.92295956 L 690.49885846938 246.46152428 L 673.04680367431 242.58874692 L 655.59474887924 244.37135075999998 L 638.14269408416 215.54894696 L 620.69063928909 233.80184128 L 603.23858449401 211.41112768 L 585.78652969894 217.67810064 L 568.33447490387 235.72742064 L 550.88242010879 237.11419196 L 533.43036531372 239.30290187999998 L 515.97831051864 218.44000204 L 498.52625572357 232.89141128 L 481.0742009285 251.61640427999998 L 463.62214613342 224.10772744 L 446.17009133835 234.77895167999998 L 428.71803654327 238.60994699999998 L 411.2659817482 237.58361184 L 393.81392695313 238.47876544000002 L 376.36187215805 209.90822676 L 358.90981736298 223.81374724 L 341.45776256791 236.96059536 L 324.00570777283 218.2909956 L 306.55365297776 206.52199188 L 289.10159818268 235.80381712 L 271.64954338761 230.44516008 L 254.19748859254 216.45903668 L 236.74543379746 230.73767056 L 219.29337900239 194.169017 L 201.94520548586 238.32902052 L 184.49315069078 235.27186536 L 167.04109589571 241.96329056000002 L 149.58904110063 204.01214452 L 132.13698630556 218.83270688 L 114.68493151049 230.24262832 L 97.232876715412 242.84620855999998 L 79.780821920338 235.33606967999998 L 62.328767125264 227.67503471999999 L 44.87671233019 262.05960472 L 27.424657535116 198.02419392 L 9.9726027400423 192.52261928 L 9.9726027400423 362" class="highcharts-area" data-z-index="0"></path><path fill="none" d="M 9.9726027400423 123.09135956 L 27.424657535116 119.34478264 L 44.87671233019 171.29708232 L 62.328767125264 146.0833986 L 79.780821920338 153.98003764 L 97.232876715412 160.07419904 L 114.68493151049 152.26237659999998 L 132.13698630556 136.58666164 L 149.58904110063 119.88593644 L 167.04109589571 159.84752188 L 184.49315069078 152.9231352 L 201.94520548586 161.37336636 L 219.29337900239 127.83028708 L 236.74543379746 159.27195636 L 254.19748859254 147.84288512 L 271.64954338761 163.01588344 L 289.10159818268 173.62701568 L 306.55365297776 145.48397728 L 324.00570777283 158.98845968 L 341.45776256791 179.83962348 L 358.90981736298 166.78977688 L 376.36187215805 146.81416076 L 393.81392695313 172.64121728 L 411.2659817482 172.25282748 L 428.71803654327 169.45454576 L 446.17009133835 166.1623802 L 463.62214613342 154.6740206 L 481.0742009285 177.57196136 L 498.52625572357 160.35731924 L 515.97831051864 143.3942816 L 533.43036531372 162.8837824 L 550.88242010879 164.05109484 L 568.33447490387 157.0143506 L 585.78652969894 138.54260556 L 603.23858449401 140.68269888 L 620.69063928909 148.04787848 L 638.14269408416 131.436046 L 655.59474887924 157.33270788 L 673.04680367431 155.99331512 L 690.49885846938 160.73126524 L 707.95091326446 182.95409772 L 725.40296805953 171.54648584 L 742.95890413315 163.8189732 L 760.41095892822 160.6197258 L 777.8630137233 115.44810604 L 795.31506851837 114.15161028 L 812.76712331344 138.23454356 L 830.21917810852 115.19493771999998 L 847.67123290359 132.37148296 L 865.12328769867 144.98844996 L 882.57534249374 115.51782724 L 900.02739728881 151.80131168 L 917.47945208389 143.38666512" class="highcharts-graph" data-z-index="1" stroke-dasharray="none" role="region" tabindex="-1" aria-label="DatenserieMM-Name.Realisierte Erzeugung - MM-Bausteine.Braunkohle"></path></g><g data-z-index="0.1" class="highcharts-markers highcharts-series-4 highcharts-area-series " transform="translate(10,10) scale(1 1)" clip-path="none"></g><g data-z-index="0.1" class="highcharts-series highcharts-series-5 highcharts-area-series " transform="translate(10,10) scale(1 1)" clip-path="url(#highcharts-84h06mw-43)"><path fill="rgb(141,77,77)" d="M 9.9726027400423 362 L 9.9726027400423 192.52261928 L 27.424657535116 198.02419392 L 44.87671233019 262.05960472 L 62.328767125264 227.67503471999999 L 79.780821920338 235.33606967999998 L 97.232876715412 242.84620855999998 L 114.68493151049 230.24262832 L 132.13698630556 218.83270688 L 149.58904110063 204.01214452 L 167.04109589571 241.96329056000002 L 184.49315069078 235.27186536 L 201.94520548586 238.32902052 L 219.29337900239 194.169017 L 236.74543379746 230.73767056 L 254.19748859254 216.45903668 L 271.64954338761 230.44516008 L 289.10159818268 235.80381712 L 306.55365297776 206.52199188 L 324.00570777283 218.2909956 L 341.45776256791 236.96059536 L 358.90981736298 223.81374724 L 376.36187215805 209.90822676 L 393.81392695313 238.47876544000002 L 411.2659817482 237.58361184 L 428.71803654327 238.60994699999998 L 446.17009133835 234.77895167999998 L 463.62214613342 224.10772744 L 481.0742009285 251.61640427999998 L 498.52625572357 232.89141128 L 515.97831051864 218.44000204 L 533.43036531372 239.30290187999998 L 550.88242010879 237.11419196 L 568.33447490387 235.72742064 L 585.78652969894 217.67810064 L 603.23858449401 211.41112768 L 620.69063928909 233.80184128 L 638.14269408416 215.54894696 L 655.59474887924 244.37135075999998 L 673.04680367431 242.58874692 L 690.49885846938 246.46152428 L 707.95091326446 264.92295956 L 725.40296805953 255.53961548 L 742.95890413315 247.17860284 L 760.41095892822 240.82507568 L 777.8630137233 181.38175071999999 L 795.31506851837 191.14884376 L 812.76712331344 215.18786644 L 830.21917810852 181.77762668 L 847.67123290359 210.72445712 L 865.12328769867 225.809627 L 882.57534249374 172.33725311999999 L 900.02739728881 218.11103816 L 917.47945208389 218.5867858 L 917.47945208389 269.81159579999996 L 900.02739728881 269.03934119999997 L 882.57534249374 220.08788396 L 865.12328769867 276.85757828 L 847.67123290359 261.9921424 L 830.21917810852 231.96845608 L 812.76712331344 265.84834016 L 795.31506851837 241.72808468 L 777.8630137233 230.9863356 L 760.41095892822 291.860328 L 742.95890413315 299.25249108 L 725.40296805953 301.12827372 L 707.95091326446 303.8663114 L 690.49885846938 285.93767496 L 673.04680367431 287.78779904 L 655.59474887924 292.88940712 L 638.14269408416 265.8217766 L 620.69063928909 284.56615108 L 603.23858449401 260.86515676 L 585.78652969894 267.76116988 L 568.33447490387 286.16567704 L 550.88242010879 284.18751356 L 533.43036531372 278.6839986 L 515.97831051864 255.36602924 L 498.52625572357 265.23029756 L 481.0742009285 283.17830824 L 463.62214613342 255.24289856000001 L 446.17009133835 272.10435176 L 428.71803654327 280.34196584 L 411.2659817482 278.36863144 L 393.81392695313 281.8538878 L 376.36187215805 253.70703392000001 L 358.90981736298 267.4478444 L 341.45776256791 282.89764964 L 324.00570777283 264.63207808 L 306.55365297776 252.35423992 L 289.10159818268 281.83454252 L 271.64954338761 277.6010756 L 254.19748859254 263.14929712 L 236.74543379746 275.66993592 L 219.29337900239 240.17459064 L 201.94520548586 282.03998476 L 184.49315069078 282.39040076 L 167.04109589571 290.28383972 L 149.58904110063 256.24898344 L 132.13698630556 271.95303576 L 114.68493151049 284.15896624 L 97.232876715412 297.87786124 L 79.780821920338 289.61325644 L 62.328767125264 281.91670927999996 L 44.87671233019 317.33616488 L 27.424657535116 252.07615876 L 9.9726027400423 246.34351228 L 9.9726027400423 362" class="highcharts-area" data-z-index="0"></path><path fill="none" d="M 9.9726027400423 192.52261928 L 27.424657535116 198.02419392 L 44.87671233019 262.05960472 L 62.328767125264 227.67503471999999 L 79.780821920338 235.33606967999998 L 97.232876715412 242.84620855999998 L 114.68493151049 230.24262832 L 132.13698630556 218.83270688 L 149.58904110063 204.01214452 L 167.04109589571 241.96329056000002 L 184.49315069078 235.27186536 L 201.94520548586 238.32902052 L 219.29337900239 194.169017 L 236.74543379746 230.73767056 L 254.19748859254 216.45903668 L 271.64954338761 230.44516008 L 289.10159818268 235.80381712 L 306.55365297776 206.52199188 L 324.00570777283 218.2909956 L 341.45776256791 236.96059536 L 358.90981736298 223.81374724 L 376.36187215805 209.90822676 L 393.81392695313 238.47876544000002 L 411.2659817482 237.58361184 L 428.71803654327 238.60994699999998 L 446.17009133835 234.77895167999998 L 463.62214613342 224.10772744 L 481.0742009285 251.61640427999998 L 498.52625572357 232.89141128 L 515.97831051864 218.44000204 L 533.43036531372 239.30290187999998 L 550.88242010879 237.11419196 L 568.33447490387 235.72742064 L 585.78652969894 217.67810064 L 603.23858449401 211.41112768 L 620.69063928909 233.80184128 L 638.14269408416 215.54894696 L 655.59474887924 244.37135075999998 L 673.04680367431 242.58874692 L 690.49885846938 246.46152428 L 707.95091326446 264.92295956 L 725.40296805953 255.53961548 L 742.95890413315 247.17860284 L 760.41095892822 240.82507568 L 777.8630137233 181.38175071999999 L 795.31506851837 191.14884376 L 812.76712331344 215.18786644 L 830.21917810852 181.77762668 L 847.67123290359 210.72445712 L 865.12328769867 225.809627 L 882.57534249374 172.33725311999999 L 900.02739728881 218.11103816 L 917.47945208389 218.5867858" class="highcharts-graph" data-z-index="1" stroke-dasharray="none" role="region" tabindex="-1" aria-label="DatenserieMM-Name.Realisierte Erzeugung - MM-Bausteine.Kernenergie"></path></g><g data-z-index="0.1" class="highcharts-markers highcharts-series-5 highcharts-area-series " transform="translate(10,10) scale(1 1)" clip-path="none"></g><g data-z-index="0.1" class="highcharts-series highcharts-series-6 highcharts-area-series " transform="translate(10,10) scale(1 1)" clip-path="url(#highcharts-84h06mw-43)"><path fill="rgb(135,205,92)" d="M 9.9726027400423 362 L 9.9726027400423 246.34351228 L 27.424657535116 252.07615876 L 44.87671233019 317.33616488 L 62.328767125264 281.91670927999996 L 79.780821920338 289.61325644 L 97.232876715412 297.87786124 L 114.68493151049 284.15896624 L 132.13698630556 271.95303576 L 149.58904110063 256.24898344 L 167.04109589571 290.28383972 L 184.49315069078 282.39040076 L 201.94520548586 282.03998476 L 219.29337900239 240.17459064 L 236.74543379746 275.66993592 L 254.19748859254 263.14929712 L 271.64954338761 277.6010756 L 289.10159818268 281.83454252 L 306.55365297776 252.35423992 L 324.00570777283 264.63207808 L 341.45776256791 282.89764964 L 358.90981736298 267.4478444 L 376.36187215805 253.70703392000001 L 393.81392695313 281.8538878 L 411.2659817482 278.36863144 L 428.71803654327 280.34196584 L 446.17009133835 272.10435176 L 463.62214613342 255.24289856000001 L 481.0742009285 283.17830824 L 498.52625572357 265.23029756 L 515.97831051864 255.36602924 L 533.43036531372 278.6839986 L 550.88242010879 284.18751356 L 568.33447490387 286.16567704 L 585.78652969894 267.76116988 L 603.23858449401 260.86515676 L 620.69063928909 284.56615108 L 638.14269408416 265.8217766 L 655.59474887924 292.88940712 L 673.04680367431 287.78779904 L 690.49885846938 285.93767496 L 707.95091326446 303.8663114 L 725.40296805953 301.12827372 L 742.95890413315 299.25249108 L 760.41095892822 291.860328 L 777.8630137233 230.9863356 L 795.31506851837 241.72808468 L 812.76712331344 265.84834016 L 830.21917810852 231.96845608 L 847.67123290359 261.9921424 L 865.12328769867 276.85757828 L 882.57534249374 220.08788396 L 900.02739728881 269.03934119999997 L 917.47945208389 269.81159579999996 L 917.47945208389 270.6859344 L 900.02739728881 269.85019224 L 882.57534249374 220.74313292 L 865.12328769867 277.6394114 L 847.67123290359 262.57555608 L 830.21917810852 232.485088 L 812.76712331344 266.41817884 L 795.31506851837 242.14943096000002 L 777.8630137233 231.349132 L 760.41095892822 292.35845448 L 742.95890413315 299.71857332 L 725.40296805953 301.57823972 L 707.95091326446 304.31873176 L 690.49885846938 286.35741396000003 L 673.04680367431 288.24389732 L 655.59474887924 293.34909644 L 638.14269408416 266.22329976000003 L 620.69063928909 284.99263052 L 603.23858449401 261.27166104 L 585.78652969894 268.18584656 L 568.33447490387 286.57698144 L 550.88242010879 284.6218122 L 533.43036531372 279.11354056 L 515.97831051864 255.82628327999998 L 498.52625572357 265.71283632 L 481.0742009285 283.64491176 L 463.62214613342 255.70255892 L 446.17009133835 272.58769416 L 428.71803654327 280.913086 L 411.2659817482 278.93332248 L 393.81392695313 282.3866432 L 376.36187215805 254.16339284 L 358.90981736298 267.95461544 L 341.45776256791 283.40539084 L 324.00570777283 265.14177408 L 306.55365297776 252.90584828 L 289.10159818268 282.4705186 L 271.64954338761 278.22926868 L 254.19748859254 263.70123852 L 236.74543379746 276.3673796 L 219.29337900239 240.81680036 L 201.94520548586 282.5242394 L 184.49315069078 282.87184628 L 167.04109589571 290.69857588 L 149.58904110063 256.7583464 L 132.13698630556 272.43709492 L 114.68493151049 284.74073644 L 97.232876715412 298.53562972 L 79.780821920338 290.27499244 L 62.328767125264 282.57967608 L 44.87671233019 318.00511192 L 27.424657535116 252.6985526 L 9.9726027400423 246.98558444 L 9.9726027400423 362" class="highcharts-area" data-z-index="0"></path><path fill="none" d="M 9.9726027400423 246.34351228 L 27.424657535116 252.07615876 L 44.87671233019 317.33616488 L 62.328767125264 281.91670927999996 L 79.780821920338 289.61325644 L 97.232876715412 297.87786124 L 114.68493151049 284.15896624 L 132.13698630556 271.95303576 L 149.58904110063 256.24898344 L 167.04109589571 290.28383972 L 184.49315069078 282.39040076 L 201.94520548586 282.03998476 L 219.29337900239 240.17459064 L 236.74543379746 275.66993592 L 254.19748859254 263.14929712 L 271.64954338761 277.6010756 L 289.10159818268 281.83454252 L 306.55365297776 252.35423992 L 324.00570777283 264.63207808 L 341.45776256791 282.89764964 L 358.90981736298 267.4478444 L 376.36187215805 253.70703392000001 L 393.81392695313 281.8538878 L 411.2659817482 278.36863144 L 428.71803654327 280.34196584 L 446.17009133835 272.10435176 L 463.62214613342 255.24289856000001 L 481.0742009285 283.17830824 L 498.52625572357 265.23029756 L 515.97831051864 255.36602924 L 533.43036531372 278.6839986 L 550.88242010879 284.18751356 L 568.33447490387 286.16567704 L 585.78652969894 267.76116988 L 603.23858449401 260.86515676 L 620.69063928909 284.56615108 L 638.14269408416 265.8217766 L 655.59474887924 292.88940712 L 673.04680367431 287.78779904 L 690.49885846938 285.93767496 L 707.95091326446 303.8663114 L 725.40296805953 301.12827372 L 742.95890413315 299.25249108 L 760.41095892822 291.860328 L 777.8630137233 230.9863356 L 795.31506851837 241.72808468 L 812.76712331344 265.84834016 L 830.21917810852 231.96845608 L 847.67123290359 261.9921424 L 865.12328769867 276.85757828 L 882.57534249374 220.08788396 L 900.02739728881 269.03934119999997 L 917.47945208389 269.81159579999996" class="highcharts-graph" data-z-index="1" stroke-dasharray="none" role="region" tabindex="-1" aria-label="DatenserieMM-Name.Realisierte Erzeugung - MM-Bausteine.Sonstige Erneuerbare"></path></g><g data-z-index="0.1" class="highcharts-markers highcharts-series-6 highcharts-area-series " transform="translate(10,10) scale(1 1)" clip-path="none"></g><g data-z-index="0.1" class="highcharts-series highcharts-series-7 highcharts-area-series " transform="translate(10,10) scale(1 1)" clip-path="url(#highcharts-84h06mw-43)"><path fill="rgb(255,243,64)" d="M 9.9726027400423 362 L 9.9726027400423 246.98558444 L 27.424657535116 252.6985526 L 44.87671233019 318.00511192 L 62.328767125264 282.57967608 L 79.780821920338 290.27499244 L 97.232876715412 298.53562972 L 114.68493151049 284.74073644 L 132.13698630556 272.43709492 L 149.58904110063 256.7583464 L 167.04109589571 290.69857588 L 184.49315069078 282.87184628 L 201.94520548586 282.5242394 L 219.29337900239 240.81680036 L 236.74543379746 276.3673796 L 254.19748859254 263.70123852 L 271.64954338761 278.22926868 L 289.10159818268 282.4705186 L 306.55365297776 252.90584828 L 324.00570777283 265.14177408 L 341.45776256791 283.40539084 L 358.90981736298 267.95461544 L 376.36187215805 254.16339284 L 393.81392695313 282.3866432 L 411.2659817482 278.93332248 L 428.71803654327 280.913086 L 446.17009133835 272.58769416 L 463.62214613342 255.70255892 L 481.0742009285 283.64491176 L 498.52625572357 265.71283632 L 515.97831051864 255.82628327999998 L 533.43036531372 279.11354056 L 550.88242010879 284.6218122 L 568.33447490387 286.57698144 L 585.78652969894 268.18584656 L 603.23858449401 261.27166104 L 620.69063928909 284.99263052 L 638.14269408416 266.22329976000003 L 655.59474887924 293.34909644 L 673.04680367431 288.24389732 L 690.49885846938 286.35741396000003 L 707.95091326446 304.31873176 L 725.40296805953 301.57823972 L 742.95890413315 299.71857332 L 760.41095892822 292.35845448 L 777.8630137233 231.349132 L 795.31506851837 242.14943096000002 L 812.76712331344 266.41817884 L 830.21917810852 232.485088 L 847.67123290359 262.57555608 L 865.12328769867 277.6394114 L 882.57534249374 220.74313292 L 900.02739728881 269.85019224 L 917.47945208389 270.6859344 L 917.47945208389 274.55551892 L 900.02739728881 274.5792806 L 882.57534249374 227.11280528 L 865.12328769867 281.8784314 L 847.67123290359 268.67853579999996 L 830.21917810852 237.23408636 L 812.76712331344 270.956276 L 795.31506851837 247.84646388 L 777.8630137233 238.83120864 L 760.41095892822 304.68617624 L 742.95890413315 311.78837732 L 725.40296805953 310.81814492 L 707.95091326446 312.33572856 L 690.49885846938 300.37723232 L 673.04680367431 316.3126316 L 655.59474887924 313.4393652 L 638.14269408416 284.19072812 L 620.69063928909 309.81544112 L 603.23858449401 284.13263436 L 585.78652969894 296.82976988 L 568.33447490387 312.7377006 L 550.88242010879 312.94271568 L 533.43036531372 314.84915248 L 515.97831051864 285.85707928 L 498.52625572357 297.53615496 L 481.0742009285 311.33804932 L 463.62214613342 289.754393 L 446.17009133835 312.58863624 L 428.71803654327 309.37626996 L 411.2659817482 304.17081132 L 393.81392695313 312.5610446 L 376.36187215805 290.83971243999997 L 358.90981736298 295.50339464 L 341.45776256791 312.16455324 L 324.00570777283 297.19195812 L 306.55365297776 282.59219404 L 289.10159818268 307.89617504 L 271.64954338761 312.15137644 L 254.19748859254 296.3489108 L 236.74543379746 306.06159524 L 219.29337900239 261.91953244 L 201.94520548586 299.7802364 L 184.49315069078 306.62390432 L 167.04109589571 308.80061032 L 149.58904110063 274.74178964 L 132.13698630556 285.25159084 L 114.68493151049 295.91078944000003 L 97.232876715412 307.236097 L 79.780821920338 297.64201823999997 L 62.328767125264 286.37012016 L 44.87671233019 320.8179388 L 27.424657535116 257.68117852 L 9.9726027400423 250.81503764 L 9.9726027400423 362" class="highcharts-area" data-z-index="0"></path><path fill="none" d="M 9.9726027400423 246.98558444 L 27.424657535116 252.6985526 L 44.87671233019 318.00511192 L 62.328767125264 282.57967608 L 79.780821920338 290.27499244 L 97.232876715412 298.53562972 L 114.68493151049 284.74073644 L 132.13698630556 272.43709492 L 149.58904110063 256.7583464 L 167.04109589571 290.69857588 L 184.49315069078 282.87184628 L 201.94520548586 282.5242394 L 219.29337900239 240.81680036 L 236.74543379746 276.3673796 L 254.19748859254 263.70123852 L 271.64954338761 278.22926868 L 289.10159818268 282.4705186 L 306.55365297776 252.90584828 L 324.00570777283 265.14177408 L 341.45776256791 283.40539084 L 358.90981736298 267.95461544 L 376.36187215805 254.16339284 L 393.81392695313 282.3866432 L 411.2659817482 278.93332248 L 428.71803654327 280.913086 L 446.17009133835 272.58769416 L 463.62214613342 255.70255892 L 481.0742009285 283.64491176 L 498.52625572357 265.71283632 L 515.97831051864 255.82628327999998 L 533.43036531372 279.11354056 L 550.88242010879 284.6218122 L 568.33447490387 286.57698144 L 585.78652969894 268.18584656 L 603.23858449401 261.27166104 L 620.69063928909 284.99263052 L 638.14269408416 266.22329976000003 L 655.59474887924 293.34909644 L 673.04680367431 288.24389732 L 690.49885846938 286.35741396000003 L 707.95091326446 304.31873176 L 725.40296805953 301.57823972 L 742.95890413315 299.71857332 L 760.41095892822 292.35845448 L 777.8630137233 231.349132 L 795.31506851837 242.14943096000002 L 812.76712331344 266.41817884 L 830.21917810852 232.485088 L 847.67123290359 262.57555608 L 865.12328769867 277.6394114 L 882.57534249374 220.74313292 L 900.02739728881 269.85019224 L 917.47945208389 270.6859344" class="highcharts-graph" data-z-index="1" stroke-dasharray="none" role="region" tabindex="-1" aria-label="DatenserieMM-Name.Realisierte Erzeugung - MM-Bausteine.Photovoltaik"></path></g><g data-z-index="0.1" class="highcharts-markers highcharts-series-7 highcharts-area-series " transform="translate(10,10) scale(1 1)" clip-path="none"></g><g data-z-index="0.1" class="highcharts-series highcharts-series-8 highcharts-area-series " transform="translate(10,10) scale(1 1)" clip-path="url(#highcharts-84h06mw-43)"><path fill="rgb(90,103,255)" d="M 9.9726027400423 362 L 9.9726027400423 250.81503764 L 27.424657535116 257.68117852 L 44.87671233019 320.8179388 L 62.328767125264 286.37012016 L 79.780821920338 297.64201823999997 L 97.232876715412 307.236097 L 114.68493151049 295.91078944000003 L 132.13698630556 285.25159084 L 149.58904110063 274.74178964 L 167.04109589571 308.80061032 L 184.49315069078 306.62390432 L 201.94520548586 299.7802364 L 219.29337900239 261.91953244 L 236.74543379746 306.06159524 L 254.19748859254 296.3489108 L 271.64954338761 312.15137644 L 289.10159818268 307.89617504 L 306.55365297776 282.59219404 L 324.00570777283 297.19195812 L 341.45776256791 312.16455324 L 358.90981736298 295.50339464 L 376.36187215805 290.83971243999997 L 393.81392695313 312.5610446 L 411.2659817482 304.17081132 L 428.71803654327 309.37626996 L 446.17009133835 312.58863624 L 463.62214613342 289.754393 L 481.0742009285 311.33804932 L 498.52625572357 297.53615496 L 515.97831051864 285.85707928 L 533.43036531372 314.84915248 L 550.88242010879 312.94271568 L 568.33447490387 312.7377006 L 585.78652969894 296.82976988 L 603.23858449401 284.13263436 L 620.69063928909 309.81544112 L 638.14269408416 284.19072812 L 655.59474887924 313.4393652 L 673.04680367431 316.3126316 L 690.49885846938 300.37723232 L 707.95091326446 312.33572856 L 725.40296805953 310.81814492 L 742.95890413315 311.78837732 L 760.41095892822 304.68617624 L 777.8630137233 238.83120864 L 795.31506851837 247.84646388 L 812.76712331344 270.956276 L 830.21917810852 237.23408636 L 847.67123290359 268.67853579999996 L 865.12328769867 281.8784314 L 882.57534249374 227.11280528 L 900.02739728881 274.5792806 L 917.47945208389 274.55551892 L 917.47945208389 322.1907876 L 900.02739728881 324.19308924 L 882.57534249374 322.199548 L 865.12328769867 324.28349512 L 847.67123290359 326.780115 L 830.21917810852 323.08733852 L 812.76712331344 327.23176792 L 795.31506851837 326.96354764 L 777.8630137233 325.92890096 L 760.41095892822 331.94341512 L 742.95890413315 332.25640032 L 725.40296805953 329.94680412 L 707.95091326446 327.5864338 L 690.49885846938 329.29946124 L 673.04680367431 335.88044024 L 655.59474887924 332.55183576 L 638.14269408416 329.09411312 L 620.69063928909 332.17693408 L 603.23858449401 327.06179443999997 L 585.78652969894 329.70839092 L 568.33447490387 331.32479332 L 550.88242010879 332.85973124 L 533.43036531372 333.61114912 L 515.97831051864 330.13745504 L 498.52625572357 330.55819316 L 481.0742009285 331.4813366 L 463.62214613342 328.82755804 L 446.17009133835 330.5845178 L 428.71803654327 330.71220244 L 411.2659817482 328.17857168 L 393.81392695313 331.02068436 L 376.36187215805 329.23296184000003 L 358.90981736298 328.2326038 L 341.45776256791 330.21161436 L 324.00570777283 328.87187408 L 306.55365297776 327.95391448 L 289.10159818268 330.88289992 L 271.64954338761 332.44710916 L 254.19748859254 330.98444816 L 236.74543379746 332.83609264 L 219.29337900239 330.7313812 L 201.94520548586 333.7377188 L 184.49315069078 334.1885174 L 167.04109589571 333.87500368 L 149.58904110063 332.1984224 L 132.13698630556 333.66363188 L 114.68493151049 334.23180536 L 97.232876715412 334.33727768 L 79.780821920338 334.01014552 L 62.328767125264 333.38752 L 44.87671233019 333.50850764 L 27.424657535116 332.21886092 L 9.9726027400423 332.86735496 L 9.9726027400423 362" class="highcharts-area" data-z-index="0"></path><path fill="none" d="M 9.9726027400423 250.81503764 L 27.424657535116 257.68117852 L 44.87671233019 320.8179388 L 62.328767125264 286.37012016 L 79.780821920338 297.64201823999997 L 97.232876715412 307.236097 L 114.68493151049 295.91078944000003 L 132.13698630556 285.25159084 L 149.58904110063 274.74178964 L 167.04109589571 308.80061032 L 184.49315069078 306.62390432 L 201.94520548586 299.7802364 L 219.29337900239 261.91953244 L 236.74543379746 306.06159524 L 254.19748859254 296.3489108 L 271.64954338761 312.15137644 L 289.10159818268 307.89617504 L 306.55365297776 282.59219404 L 324.00570777283 297.19195812 L 341.45776256791 312.16455324 L 358.90981736298 295.50339464 L 376.36187215805 290.83971243999997 L 393.81392695313 312.5610446 L 411.2659817482 304.17081132 L 428.71803654327 309.37626996 L 446.17009133835 312.58863624 L 463.62214613342 289.754393 L 481.0742009285 311.33804932 L 498.52625572357 297.53615496 L 515.97831051864 285.85707928 L 533.43036531372 314.84915248 L 550.88242010879 312.94271568 L 568.33447490387 312.7377006 L 585.78652969894 296.82976988 L 603.23858449401 284.13263436 L 620.69063928909 309.81544112 L 638.14269408416 284.19072812 L 655.59474887924 313.4393652 L 673.04680367431 316.3126316 L 690.49885846938 300.37723232 L 707.95091326446 312.33572856 L 725.40296805953 310.81814492 L 742.95890413315 311.78837732 L 760.41095892822 304.68617624 L 777.8630137233 238.83120864 L 795.31506851837 247.84646388 L 812.76712331344 270.956276 L 830.21917810852 237.23408636 L 847.67123290359 268.67853579999996 L 865.12328769867 281.8784314 L 882.57534249374 227.11280528 L 900.02739728881 274.5792806 L 917.47945208389 274.55551892" class="highcharts-graph" data-z-index="1" stroke-dasharray="none" role="region" tabindex="-1" aria-label="DatenserieMM-Name.Realisierte Erzeugung - MM-Bausteine.Wind Onshore"></path></g><g data-z-index="0.1" class="highcharts-markers highcharts-series-8 highcharts-area-series " transform="translate(10,10) scale(1 1)" clip-path="none"></g><g data-z-index="0.1" class="highcharts-series highcharts-series-9 highcharts-area-series " transform="translate(10,10) scale(1 1)" clip-path="url(#highcharts-84h06mw-43)"><path fill="rgb(0,213,255)" d="M 9.9726027400423 362 L 9.9726027400423 332.86735496 L 27.424657535116 332.21886092 L 44.87671233019 333.50850764 L 62.328767125264 333.38752 L 79.780821920338 334.01014552 L 97.232876715412 334.33727768 L 114.68493151049 334.23180536 L 132.13698630556 333.66363188 L 149.58904110063 332.1984224 L 167.04109589571 333.87500368 L 184.49315069078 334.1885174 L 201.94520548586 333.7377188 L 219.29337900239 330.7313812 L 236.74543379746 332.83609264 L 254.19748859254 330.98444816 L 271.64954338761 332.44710916 L 289.10159818268 330.88289992 L 306.55365297776 327.95391448 L 324.00570777283 328.87187408 L 341.45776256791 330.21161436 L 358.90981736298 328.2326038 L 376.36187215805 329.23296184000003 L 393.81392695313 331.02068436 L 411.2659817482 328.17857168 L 428.71803654327 330.71220244 L 446.17009133835 330.5845178 L 463.62214613342 328.82755804 L 481.0742009285 331.4813366 L 498.52625572357 330.55819316 L 515.97831051864 330.13745504 L 533.43036531372 333.61114912 L 550.88242010879 332.85973124 L 568.33447490387 331.32479332 L 585.78652969894 329.70839092 L 603.23858449401 327.06179443999997 L 620.69063928909 332.17693408 L 638.14269408416 329.09411312 L 655.59474887924 332.55183576 L 673.04680367431 335.88044024 L 690.49885846938 329.29946124 L 707.95091326446 327.5864338 L 725.40296805953 329.94680412 L 742.95890413315 332.25640032 L 760.41095892822 331.94341512 L 777.8630137233 325.92890096 L 795.31506851837 326.96354764 L 812.76712331344 327.23176792 L 830.21917810852 323.08733852 L 847.67123290359 326.780115 L 865.12328769867 324.28349512 L 882.57534249374 322.199548 L 900.02739728881 324.19308924 L 917.47945208389 322.1907876 L 917.47945208389 333.558927 L 900.02739728881 334.54657884 L 882.57534249374 334.30741267999997 L 865.12328769867 333.81251524 L 847.67123290359 333.513496 L 830.21917810852 333.4676668 L 812.76712331344 336.33518464 L 795.31506851837 336.91885896 L 777.8630137233 337.6410924 L 760.41095892822 337.28216216 L 742.95890413315 336.55037192 L 725.40296805953 335.77274524 L 707.95091326446 335.99376796 L 690.49885846938 335.93289404 L 673.04680367431 336.73011216 L 655.59474887924 336.06637792 L 638.14269408416 335.84035236 L 620.69063928909 336.0076398 L 603.23858449401 335.49365772 L 585.78652969894 336.06713088 L 568.33447490387 335.38175628 L 550.88242010879 335.9802364 L 533.43036531372 335.89334192 L 515.97831051864 335.91920319999997 L 498.52625572357 335.00821572 L 481.0742009285 334.41800367999997 L 463.62214613342 333.9478598 L 446.17009133835 333.26832064 L 428.71803654327 333.10623152 L 411.2659817482 332.79360108 L 393.81392695313 333.57200968 L 376.36187215805 333.39327579999997 L 358.90981736298 332.5000408 L 341.45776256791 332.45715104 L 324.00570777283 332.71451132 L 306.55365297776 333.00142528 L 289.10159818268 333.4907262 L 271.64954338761 334.77345148 L 254.19748859254 334.22425404 L 236.74543379746 334.7226484 L 219.29337900239 334.027898 L 201.94520548586 336.17724404 L 184.49315069078 336.2464874 L 167.04109589571 336.43959992 L 149.58904110063 335.64901364 L 132.13698630556 336.3771694 L 114.68493151049 336.5922698 L 97.232876715412 336.23307892 L 79.780821920338 335.623594 L 62.328767125264 335.12008096 L 44.87671233019 334.38074664 L 27.424657535116 334.21760048 L 9.9726027400423 334.67789072 L 9.9726027400423 362" class="highcharts-area" data-z-index="0"></path><path fill="none" d="M 9.9726027400423 332.86735496 L 27.424657535116 332.21886092 L 44.87671233019 333.50850764 L 62.328767125264 333.38752 L 79.780821920338 334.01014552 L 97.232876715412 334.33727768 L 114.68493151049 334.23180536 L 132.13698630556 333.66363188 L 149.58904110063 332.1984224 L 167.04109589571 333.87500368 L 184.49315069078 334.1885174 L 201.94520548586 333.7377188 L 219.29337900239 330.7313812 L 236.74543379746 332.83609264 L 254.19748859254 330.98444816 L 271.64954338761 332.44710916 L 289.10159818268 330.88289992 L 306.55365297776 327.95391448 L 324.00570777283 328.87187408 L 341.45776256791 330.21161436 L 358.90981736298 328.2326038 L 376.36187215805 329.23296184000003 L 393.81392695313 331.02068436 L 411.2659817482 328.17857168 L 428.71803654327 330.71220244 L 446.17009133835 330.5845178 L 463.62214613342 328.82755804 L 481.0742009285 331.4813366 L 498.52625572357 330.55819316 L 515.97831051864 330.13745504 L 533.43036531372 333.61114912 L 550.88242010879 332.85973124 L 568.33447490387 331.32479332 L 585.78652969894 329.70839092 L 603.23858449401 327.06179443999997 L 620.69063928909 332.17693408 L 638.14269408416 329.09411312 L 655.59474887924 332.55183576 L 673.04680367431 335.88044024 L 690.49885846938 329.29946124 L 707.95091326446 327.5864338 L 725.40296805953 329.94680412 L 742.95890413315 332.25640032 L 760.41095892822 331.94341512 L 777.8630137233 325.92890096 L 795.31506851837 326.96354764 L 812.76712331344 327.23176792 L 830.21917810852 323.08733852 L 847.67123290359 326.780115 L 865.12328769867 324.28349512 L 882.57534249374 322.199548 L 900.02739728881 324.19308924 L 917.47945208389 322.1907876" class="highcharts-graph" data-z-index="1" stroke-dasharray="none" role="region" tabindex="-1" aria-label="DatenserieMM-Name.Realisierte Erzeugung - MM-Bausteine.Wind Offshore"></path></g><g data-z-index="0.1" class="highcharts-markers highcharts-series-9 highcharts-area-series " transform="translate(10,10) scale(1 1)" clip-path="none"></g><g data-z-index="0.1" class="highcharts-series highcharts-series-10 highcharts-area-series " transform="translate(10,10) scale(1 1)" clip-path="url(#highcharts-84h06mw-43)"><path fill="rgb(166,226,255)" d="M 9.9726027400423 362 L 9.9726027400423 334.67789072 L 27.424657535116 334.21760048 L 44.87671233019 334.38074664 L 62.328767125264 335.12008096 L 79.780821920338 335.623594 L 97.232876715412 336.23307892 L 114.68493151049 336.5922698 L 132.13698630556 336.3771694 L 149.58904110063 335.64901364 L 167.04109589571 336.43959992 L 184.49315069078 336.2464874 L 201.94520548586 336.17724404 L 219.29337900239 334.027898 L 236.74543379746 334.7226484 L 254.19748859254 334.22425404 L 271.64954338761 334.77345148 L 289.10159818268 333.4907262 L 306.55365297776 333.00142528 L 324.00570777283 332.71451132 L 341.45776256791 332.45715104 L 358.90981736298 332.5000408 L 376.36187215805 333.39327579999997 L 393.81392695313 333.57200968 L 411.2659817482 332.79360108 L 428.71803654327 333.10623152 L 446.17009133835 333.26832064 L 463.62214613342 333.9478598 L 481.0742009285 334.41800367999997 L 498.52625572357 335.00821572 L 515.97831051864 335.91920319999997 L 533.43036531372 335.89334192 L 550.88242010879 335.9802364 L 568.33447490387 335.38175628 L 585.78652969894 336.06713088 L 603.23858449401 335.49365772 L 620.69063928909 336.0076398 L 638.14269408416 335.84035236 L 655.59474887924 336.06637792 L 673.04680367431 336.73011216 L 690.49885846938 335.93289404 L 707.95091326446 335.99376796 L 725.40296805953 335.77274524 L 742.95890413315 336.55037192 L 760.41095892822 337.28216216 L 777.8630137233 337.6410924 L 795.31506851837 336.91885896 L 812.76712331344 336.33518464 L 830.21917810852 333.4676668 L 847.67123290359 333.513496 L 865.12328769867 333.81251524 L 882.57534249374 334.30741267999997 L 900.02739728881 334.54657884 L 917.47945208389 333.558927 L 917.47945208389 339.72026112 L 900.02739728881 339.54770296 L 882.57534249374 339.50377788000003 L 865.12328769867 339.52945816 L 847.67123290359 339.39359956 L 830.21917810852 340.301358 L 812.76712331344 342.40654004 L 795.31506851837 342.4905892 L 777.8630137233 342.64257127999997 L 760.41095892822 342.5433688 L 742.95890413315 342.5026076 L 725.40296805953 342.35638856 L 707.95091326446 342.69000052 L 690.49885846938 342.85209688 L 673.04680367431 343.10025512 L 655.59474887924 343.11810896 L 638.14269408416 343.12045472 L 620.69063928909 343.13082964 L 603.23858449401 343.47932704 L 585.78652969894 343.5083522 L 568.33447490387 343.59966308 L 550.88242010879 343.99585036 L 533.43036531372 344.0500128 L 515.97831051864 343.91242384 L 498.52625572357 343.76711704 L 481.0742009285 343.42709044000003 L 463.62214613342 343.57695844 L 446.17009133835 343.59369008 L 428.71803654327 343.47838584 L 411.2659817482 343.45306032 L 393.81392695313 343.46098088 L 376.36187215805 343.27918448 L 358.90981736298 342.52810688 L 341.45776256791 342.67421732 L 324.00570777283 342.907215 L 306.55365297776 342.9036674 L 289.10159818268 342.66815744 L 271.64954338761 342.8436116 L 254.19748859254 342.82900128 L 236.74543379746 342.585759 L 219.29337900239 342.57109076 L 201.94520548586 342.82078388 L 184.49315069078 342.74654492 L 167.04109589571 342.83537972 L 149.58904110063 342.59926884 L 132.13698630556 342.62966236 L 114.68493151049 342.63623628 L 97.232876715412 342.34539824 L 79.780821920338 342.2214422 L 62.328767125264 342.22567036 L 44.87671233019 342.27871784 L 27.424657535116 342.27031944 L 9.9726027400423 342.47348108 L 9.9726027400423 362" class="highcharts-area" data-z-index="0"></path><path fill="none" d="M 9.9726027400423 334.67789072 L 27.424657535116 334.21760048 L 44.87671233019 334.38074664 L 62.328767125264 335.12008096 L 79.780821920338 335.623594 L 97.232876715412 336.23307892 L 114.68493151049 336.5922698 L 132.13698630556 336.3771694 L 149.58904110063 335.64901364 L 167.04109589571 336.43959992 L 184.49315069078 336.2464874 L 201.94520548586 336.17724404 L 219.29337900239 334.027898 L 236.74543379746 334.7226484 L 254.19748859254 334.22425404 L 271.64954338761 334.77345148 L 289.10159818268 333.4907262 L 306.55365297776 333.00142528 L 324.00570777283 332.71451132 L 341.45776256791 332.45715104 L 358.90981736298 332.5000408 L 376.36187215805 333.39327579999997 L 393.81392695313 333.57200968 L 411.2659817482 332.79360108 L 428.71803654327 333.10623152 L 446.17009133835 333.26832064 L 463.62214613342 333.9478598 L 481.0742009285 334.41800367999997 L 498.52625572357 335.00821572 L 515.97831051864 335.91920319999997 L 533.43036531372 335.89334192 L 550.88242010879 335.9802364 L 568.33447490387 335.38175628 L 585.78652969894 336.06713088 L 603.23858449401 335.49365772 L 620.69063928909 336.0076398 L 638.14269408416 335.84035236 L 655.59474887924 336.06637792 L 673.04680367431 336.73011216 L 690.49885846938 335.93289404 L 707.95091326446 335.99376796 L 725.40296805953 335.77274524 L 742.95890413315 336.55037192 L 760.41095892822 337.28216216 L 777.8630137233 337.6410924 L 795.31506851837 336.91885896 L 812.76712331344 336.33518464 L 830.21917810852 333.4676668 L 847.67123290359 333.513496 L 865.12328769867 333.81251524 L 882.57534249374 334.30741267999997 L 900.02739728881 334.54657884 L 917.47945208389 333.558927" class="highcharts-graph" data-z-index="1" stroke-dasharray="none" role="region" tabindex="-1" aria-label="DatenserieMM-Name.Realisierte Erzeugung - MM-Bausteine.Wasserkraft"></path></g><g data-z-index="0.1" class="highcharts-markers highcharts-series-10 highcharts-area-series " transform="translate(10,10) scale(1 1)" clip-path="none"></g><g data-z-index="0.1" class="highcharts-series highcharts-series-11 highcharts-area-series " transform="translate(10,10) scale(1 1)" clip-path="url(#highcharts-84h06mw-43)"><path fill="rgb(81,179,81)" d="M 9.9726027400423 362 L 9.9726027400423 342.47348108 L 27.424657535116 342.27031944 L 44.87671233019 342.27871784 L 62.328767125264 342.22567036 L 79.780821920338 342.2214422 L 97.232876715412 342.34539824 L 114.68493151049 342.63623628 L 132.13698630556 342.62966236 L 149.58904110063 342.59926884 L 167.04109589571 342.83537972 L 184.49315069078 342.74654492 L 201.94520548586 342.82078388 L 219.29337900239 342.57109076 L 236.74543379746 342.585759 L 254.19748859254 342.82900128 L 271.64954338761 342.8436116 L 289.10159818268 342.66815744 L 306.55365297776 342.9036674 L 324.00570777283 342.907215 L 341.45776256791 342.67421732 L 358.90981736298 342.52810688 L 376.36187215805 343.27918448 L 393.81392695313 343.46098088 L 411.2659817482 343.45306032 L 428.71803654327 343.47838584 L 446.17009133835 343.59369008 L 463.62214613342 343.57695844 L 481.0742009285 343.42709044000003 L 498.52625572357 343.76711704 L 515.97831051864 343.91242384 L 533.43036531372 344.0500128 L 550.88242010879 343.99585036 L 568.33447490387 343.59966308 L 585.78652969894 343.5083522 L 603.23858449401 343.47932704 L 620.69063928909 343.13082964 L 638.14269408416 343.12045472 L 655.59474887924 343.11810896 L 673.04680367431 343.10025512 L 690.49885846938 342.85209688 L 707.95091326446 342.69000052 L 725.40296805953 342.35638856 L 742.95890413315 342.5026076 L 760.41095892822 342.5433688 L 777.8630137233 342.64257127999997 L 795.31506851837 342.4905892 L 812.76712331344 342.40654004 L 830.21917810852 340.301358 L 847.67123290359 339.39359956 L 865.12328769867 339.52945816 L 882.57534249374 339.50377788000003 L 900.02739728881 339.54770296 L 917.47945208389 339.72026112 L 917.47945208389 362 L 900.02739728881 362 L 882.57534249374 362 L 865.12328769867 362 L 847.67123290359 362 L 830.21917810852 362 L 812.76712331344 362 L 795.31506851837 362 L 777.8630137233 362 L 760.41095892822 362 L 742.95890413315 362 L 725.40296805953 362 L 707.95091326446 362 L 690.49885846938 362 L 673.04680367431 362 L 655.59474887924 362 L 638.14269408416 362 L 620.69063928909 362 L 603.23858449401 362 L 585.78652969894 362 L 568.33447490387 362 L 550.88242010879 362 L 533.43036531372 362 L 515.97831051864 362 L 498.52625572357 362 L 481.0742009285 362 L 463.62214613342 362 L 446.17009133835 362 L 428.71803654327 362 L 411.2659817482 362 L 393.81392695313 362 L 376.36187215805 362 L 358.90981736298 362 L 341.45776256791 362 L 324.00570777283 362 L 306.55365297776 362 L 289.10159818268 362 L 271.64954338761 362 L 254.19748859254 362 L 236.74543379746 362 L 219.29337900239 362 L 201.94520548586 362 L 184.49315069078 362 L 167.04109589571 362 L 149.58904110063 362 L 132.13698630556 362 L 114.68493151049 362 L 97.232876715412 362 L 79.780821920338 362 L 62.328767125264 362 L 44.87671233019 362 L 27.424657535116 362 L 9.9726027400423 362 L 9.9726027400423 362" class="highcharts-area" data-z-index="0"></path><path fill="none" d="M 9.9726027400423 342.47348108 L 27.424657535116 342.27031944 L 44.87671233019 342.27871784 L 62.328767125264 342.22567036 L 79.780821920338 342.2214422 L 97.232876715412 342.34539824 L 114.68493151049 342.63623628 L 132.13698630556 342.62966236 L 149.58904110063 342.59926884 L 167.04109589571 342.83537972 L 184.49315069078 342.74654492 L 201.94520548586 342.82078388 L 219.29337900239 342.57109076 L 236.74543379746 342.585759 L 254.19748859254 342.82900128 L 271.64954338761 342.8436116 L 289.10159818268 342.66815744 L 306.55365297776 342.9036674 L 324.00570777283 342.907215 L 341.45776256791 342.67421732 L 358.90981736298 342.52810688 L 376.36187215805 343.27918448 L 393.81392695313 343.46098088 L 411.2659817482 343.45306032 L 428.71803654327 343.47838584 L 446.17009133835 343.59369008 L 463.62214613342 343.57695844 L 481.0742009285 343.42709044000003 L 498.52625572357 343.76711704 L 515.97831051864 343.91242384 L 533.43036531372 344.0500128 L 550.88242010879 343.99585036 L 568.33447490387 343.59966308 L 585.78652969894 343.5083522 L 603.23858449401 343.47932704 L 620.69063928909 343.13082964 L 638.14269408416 343.12045472 L 655.59474887924 343.11810896 L 673.04680367431 343.10025512 L 690.49885846938 342.85209688 L 707.95091326446 342.69000052 L 725.40296805953 342.35638856 L 742.95890413315 342.5026076 L 760.41095892822 342.5433688 L 777.8630137233 342.64257127999997 L 795.31506851837 342.4905892 L 812.76712331344 342.40654004 L 830.21917810852 340.301358 L 847.67123290359 339.39359956 L 865.12328769867 339.52945816 L 882.57534249374 339.50377788000003 L 900.02739728881 339.54770296 L 917.47945208389 339.72026112" class="highcharts-graph" data-z-index="1" stroke-dasharray="none" role="region" tabindex="-1" aria-label="DatenserieMM-Name.Realisierte Erzeugung - MM-Bausteine.Biomasse"></path></g><g data-z-index="0.1" class="highcharts-markers highcharts-series-11 highcharts-area-series " transform="translate(10,10) scale(1 1)" clip-path="none"></g><g data-z-index="0.1" class="highcharts-series highcharts-series-12 highcharts-line-series " transform="translate(10,10) scale(1 1)" clip-path="url(#highcharts-84h06mw-43)"><path fill="none" d="M 9.9726027400423 69.20338071999998 L 27.424657535116 61.647774639999966 L 44.87671233019 55.23177351999999 L 62.328767125264 56.715560839999966 L 79.780821920338 51.06209100000001 L 97.232876715412 56.87746895999999 L 114.68493151049 60.51483772 L 132.13698630556 60.912031360000015 L 149.58904110063 65.50740416000002 L 167.04109589571 69.92182764 L 184.49315069078 75.57620972000001 L 201.94520548586 76.40265571999998 L 219.29337900239 87.74738095999999 L 236.74543379746 96.51416663999998 L 254.19748859254 87.43381655999997 L 271.64954338761 94.10143663999997 L 289.10159818268 102.17006912 L 306.55365297776 92.20580916 L 324.00570777283 109.17266952 L 341.45776256791 96.76910151999999 L 358.90981736298 106.74545952 L 376.36187215805 103.57447708000001 L 393.81392695313 94.24116140000001 L 411.2659817482 97.76775091999997 L 428.71803654327 95.92777732000002 L 446.17009133835 90.24040256 L 463.62214613342 92.02377383999999 L 481.0742009285 92.34856023999998 L 498.52625572357 92.97154776000002 L 515.97831051864 101.02708308000001 L 533.43036531372 98.79661284000002 L 550.88242010879 98.24723439999997 L 568.33447490387 101.41643579999999 L 585.78652969894 94.26390948 L 603.23858449401 92.28068523999997 L 620.69063928909 93.0736028 L 638.14269408416 88.57583244 L 655.59474887924 89.30280083999997 L 673.04680367431 93.35516639999997 L 690.49885846938 86.9702466 L 707.95091326446 76.49196835999999 L 725.40296805953 77.25801103999999 L 742.95890413315 79.89056191999998 L 760.41095892822 77.50926800000002 L 777.8630137233 71.34249663999998 L 795.31506851837 66.54165264 L 812.76712331344 57.2330326 L 830.21917810852 62.42837695999998 L 847.67123290359 62.75686300000001 L 865.12328769867 73.06134503999999 L 882.57534249374 120.50599176 L 900.02739728881 122.78404327999999 L 917.47945208389 73.46352703999997" class="highcharts-graph" data-z-index="1" stroke="#FF4000" stroke-width="2" stroke-dasharray="none" role="region" tabindex="-1" aria-label="DatenserieMM-Name.Realisierter Stromverbrauch - MM-Bausteine.Gesamt (Netzlast)"></path></g><g data-z-index="0.1" class="highcharts-markers highcharts-series-12 highcharts-line-series " transform="translate(10,10) scale(1 1)" clip-path="none"></g></g><text x="500" text-anchor="middle" class="highcharts-title" data-z-index="4" style="color:#333333;font-size:18px;fill:#333333;" y="24" aria-hidden="true"></text><text x="500" text-anchor="middle" class="highcharts-subtitle" data-z-index="4" style="color:#666666;fill:#666666;" y="24" aria-hidden="true"></text><g class="highcharts-legend" data-z-index="7" transform="translate(25,404)"><rect fill="none" class="highcharts-legend-box" rx="0" ry="0" x="0" y="0" width="950" height="81" visibility="visible"></rect><g data-z-index="1"><g><g class="highcharts-legend-item highcharts-area-series highcharts-color-undefined highcharts-series-0" data-z-index="1" transform="translate(8,3)"><text x="21" style="color:#333333;font-size:12px;font-weight:bold;cursor:pointer;fill:#333333;" text-anchor="start" data-z-index="2" y="15" aria-hidden="true"><tspan>Realisierte Erzeugung - Sonstige Konventionelle</tspan></text><rect x="2" y="4" width="12" height="12" fill="#758075" rx="6" ry="6" class="highcharts-point" data-z-index="3"></rect></g><g class="highcharts-legend-item highcharts-area-series highcharts-color-undefined highcharts-series-1" data-z-index="1" transform="translate(326.041015625,3)"><text x="21" y="15" style="color:#333333;font-size:12px;font-weight:bold;cursor:pointer;fill:#333333;" text-anchor="start" data-z-index="2" aria-hidden="true"><tspan>Realisierte Erzeugung - Pumpspeicher</tspan></text><rect x="2" y="4" width="12" height="12" fill="#435474" rx="6" ry="6" class="highcharts-point" data-z-index="3"></rect></g><g class="highcharts-legend-item highcharts-area-series highcharts-color-undefined highcharts-series-2" data-z-index="1" transform="translate(644.08203125,3)"><text x="21" y="15" style="color:#333333;font-size:12px;font-weight:bold;cursor:pointer;fill:#333333;" text-anchor="start" data-z-index="2" aria-hidden="true"><tspan>Realisierte Erzeugung - Erdgas</tspan></text><rect x="2" y="4" width="12" height="12" fill="#c7dada" rx="6" ry="6" class="highcharts-point" data-z-index="3"></rect></g><g class="highcharts-legend-item highcharts-area-series highcharts-color-undefined highcharts-series-3" data-z-index="1" transform="translate(8,17)"><text x="21" y="15" style="color:#333333;font-size:12px;font-weight:bold;cursor:pointer;fill:#333333;" text-anchor="start" data-z-index="2" aria-hidden="true"><tspan>Realisierte Erzeugung - Steinkohle</tspan></text><rect x="2" y="4" width="12" height="12" fill="#414141" rx="6" ry="6" class="highcharts-point" data-z-index="3"></rect></g><g class="highcharts-legend-item highcharts-area-series highcharts-color-undefined highcharts-series-4" data-z-index="1" transform="translate(326.041015625,17)"><text x="21" y="15" style="color:#333333;font-size:12px;font-weight:bold;cursor:pointer;fill:#333333;" text-anchor="start" data-z-index="2" aria-hidden="true"><tspan>Realisierte Erzeugung - Braunkohle</tspan></text><rect x="2" y="4" width="12" height="12" fill="#9a7b5c" rx="6" ry="6" class="highcharts-point" data-z-index="3"></rect></g><g class="highcharts-legend-item highcharts-area-series highcharts-color-undefined highcharts-series-5" data-z-index="1" transform="translate(644.08203125,17)"><text x="21" y="15" style="color:#333333;font-size:12px;font-weight:bold;cursor:pointer;fill:#333333;" text-anchor="start" data-z-index="2" aria-hidden="true"><tspan>Realisierte Erzeugung - Kernenergie</tspan></text><rect x="2" y="4" width="12" height="12" fill="#8d4d4d" rx="6" ry="6" class="highcharts-point" data-z-index="3"></rect></g><g class="highcharts-legend-item highcharts-area-series highcharts-color-undefined highcharts-series-6" data-z-index="1" transform="translate(8,31)"><text x="21" y="15" style="color:#333333;font-size:12px;font-weight:bold;cursor:pointer;fill:#333333;" text-anchor="start" data-z-index="2" aria-hidden="true"><tspan>Realisierte Erzeugung - Sonstige Erneuerbare</tspan></text><rect x="2" y="4" width="12" height="12" fill="#87cd5c" rx="6" ry="6" class="highcharts-point" data-z-index="3"></rect></g><g class="highcharts-legend-item highcharts-area-series highcharts-color-undefined highcharts-series-7" data-z-index="1" transform="translate(326.041015625,31)"><text x="21" y="15" style="color:#333333;font-size:12px;font-weight:bold;cursor:pointer;fill:#333333;" text-anchor="start" data-z-index="2" aria-hidden="true"><tspan>Realisierte Erzeugung - Photovoltaik</tspan></text><rect x="2" y="4" width="12" height="12" fill="#FFF340" rx="6" ry="6" class="highcharts-point" data-z-index="3"></rect></g><g class="highcharts-legend-item highcharts-area-series highcharts-color-undefined highcharts-series-8" data-z-index="1" transform="translate(644.08203125,31)"><text x="21" y="15" style="color:#333333;font-size:12px;font-weight:bold;cursor:pointer;fill:#333333;" text-anchor="start" data-z-index="2" aria-hidden="true"><tspan>Realisierte Erzeugung - Wind Onshore</tspan></text><rect x="2" y="4" width="12" height="12" fill="#5A67FF" rx="6" ry="6" class="highcharts-point" data-z-index="3"></rect></g><g class="highcharts-legend-item highcharts-area-series highcharts-color-undefined highcharts-series-9" data-z-index="1" transform="translate(8,45)"><text x="21" y="15" style="color:#333333;font-size:12px;font-weight:bold;cursor:pointer;fill:#333333;" text-anchor="start" data-z-index="2" aria-hidden="true"><tspan>Realisierte Erzeugung - Wind Offshore</tspan></text><rect x="2" y="4" width="12" height="12" fill="#00D5FF" rx="6" ry="6" class="highcharts-point" data-z-index="3"></rect></g><g class="highcharts-legend-item highcharts-area-series highcharts-color-undefined highcharts-series-10" data-z-index="1" transform="translate(326.041015625,45)"><text x="21" y="15" style="color:#333333;font-size:12px;font-weight:bold;cursor:pointer;fill:#333333;" text-anchor="start" data-z-index="2" aria-hidden="true"><tspan>Realisierte Erzeugung - Wasserkraft</tspan></text><rect x="2" y="4" width="12" height="12" fill="#A6E2FF" rx="6" ry="6" class="highcharts-point" data-z-index="3"></rect></g><g class="highcharts-legend-item highcharts-area-series highcharts-color-undefined highcharts-series-11" data-z-index="1" transform="translate(644.08203125,45)"><text x="21" y="15" style="color:#333333;font-size:12px;font-weight:bold;cursor:pointer;fill:#333333;" text-anchor="start" data-z-index="2" aria-hidden="true"><tspan>Realisierte Erzeugung - Biomasse</tspan></text><rect x="2" y="4" width="12" height="12" fill="#51b351" rx="6" ry="6" class="highcharts-point" data-z-index="3"></rect></g><g class="highcharts-legend-item highcharts-line-series highcharts-color-undefined highcharts-series-12" data-z-index="1" transform="translate(8,59)"><path fill="none" d="M 0 11 L 16 11" class="highcharts-graph" stroke-dasharray="none" stroke="#FF4000" stroke-width="2"></path><text x="21" y="15" style="color:#333333;font-size:12px;font-weight:bold;cursor:pointer;fill:#333333;" text-anchor="start" data-z-index="2" aria-hidden="true"><tspan>Realisierter Stromverbrauch - Gesamt (Netzlast)</tspan></text></g></g></g></g><g class="highcharts-axis-labels highcharts-xaxis-labels " data-z-index="7"><text x="29.09375" style="color:#666666;cursor:default;font-size:11px;fill:#666666;" text-anchor="middle" transform="translate(0,0)" y="391" opacity="1" aria-hidden="true"><tspan>Jan. '15</tspan></text><text x="87.287671235327" style="color:#666666;cursor:default;font-size:11px;fill:#666666;" text-anchor="middle" transform="translate(0,0)" y="391" opacity="1" aria-hidden="true"><tspan>Feb. '15</tspan></text><text x="157.09589041562" style="color:#666666;cursor:default;font-size:11px;fill:#666666;" text-anchor="middle" transform="translate(0,0)" y="391" opacity="1" aria-hidden="true"><tspan>Mrz '15</tspan></text><text x="234.27968037241" style="color:#666666;cursor:default;font-size:11px;fill:#666666;" text-anchor="middle" transform="translate(0,0)" y="391" opacity="1" aria-hidden="true"><tspan>Apr. '15</tspan></text><text x="309.07420092273" style="color:#666666;cursor:default;font-size:11px;fill:#666666;" text-anchor="middle" transform="translate(0,0)" y="391" opacity="1" aria-hidden="true"><tspan>Mai '15</tspan></text><text x="386.36187215805" style="color:#666666;cursor:default;font-size:11px;fill:#666666;" text-anchor="middle" transform="translate(0,0)" y="391" opacity="1" aria-hidden="true"><tspan>Juni '15</tspan></text><text x="461.15639270837" style="color:#666666;cursor:default;font-size:11px;fill:#666666;" text-anchor="middle" transform="translate(0,0)" y="391" opacity="1" aria-hidden="true"><tspan>Juli '15</tspan></text><text x="538.4440639437" style="color:#666666;cursor:default;font-size:11px;fill:#666666;" text-anchor="middle" transform="translate(0,0)" y="391" opacity="1" aria-hidden="true"><tspan>Aug. '15</tspan></text><text x="615.73173517902" style="color:#666666;cursor:default;font-size:11px;fill:#666666;" text-anchor="middle" transform="translate(0,0)" y="391" opacity="1" aria-hidden="true"><tspan>Sep. '15</tspan></text><text x="690.52625572934" style="color:#666666;cursor:default;font-size:11px;fill:#666666;" text-anchor="middle" transform="translate(0,0)" y="391" opacity="1" aria-hidden="true"><tspan>Okt. '15</tspan></text><text x="767.91780824321" style="color:#666666;cursor:default;font-size:11px;fill:#666666;" text-anchor="middle" transform="translate(0,0)" y="391" opacity="1" aria-hidden="true"><tspan>Nov. '15</tspan></text><text x="842.71232879353" style="color:#666666;cursor:default;font-size:11px;fill:#666666;" text-anchor="middle" transform="translate(0,0)" y="391" opacity="1" aria-hidden="true"><tspan>Dez. '15</tspan></text></g><g class="highcharts-axis-labels highcharts-yaxis-labels " data-z-index="7"><text x="935" style="color:#666666;cursor:default;font-size:11px;fill:#666666;" text-anchor="start" transform="translate(0,0)" y="377" opacity="1" aria-hidden="true">0</text><text x="935" style="color:#666666;cursor:default;font-size:11px;fill:#666666;" text-anchor="start" transform="translate(0,0)" y="305" opacity="1" aria-hidden="true">2.5M</text><text x="935" style="color:#666666;cursor:default;font-size:11px;fill:#666666;" text-anchor="start" transform="translate(0,0)" y="232" opacity="1" aria-hidden="true">5M</text><text x="935" style="color:#666666;cursor:default;font-size:11px;fill:#666666;" text-anchor="start" transform="translate(0,0)" y="160" opacity="1" aria-hidden="true">7.5M</text><text x="935" style="color:#666666;cursor:default;font-size:11px;fill:#666666;" text-anchor="start" transform="translate(0,0)" y="87" opacity="1" aria-hidden="true">10M</text><text x="935" style="color:#666666;cursor:default;font-size:11px;fill:#666666;" text-anchor="start" transform="translate(0,0)" y="15" opacity="1" aria-hidden="true">12.5M</text></g></svg>